<svg width="852" height="750" viewBox="0 0 852 750" fill="none" xmlns="http://www.w3.org/2000/svg">
<path fill-rule="evenodd" clip-rule="evenodd" d="M0 0H852V750H0V0ZM749.5 76.9375H776.688V165H749.5V76.9375ZM814.562 77.0625H789.062V165H814.562V77.0625ZM814.5 178.125H749.938V498.062H814.5V178.125ZM522.75 85.665H626.25V170.665H522.75V85.665ZM405.25 183.165H626.25V646.915H405.25V183.165ZM508.75 85.665H405V170.665H508.75V85.665ZM197.75 85.665H301.25V170.665H197.75V85.665ZM80.25 183.165H301.25V646.915H80.25V183.165ZM183.75 85.665H80V170.665H183.75V85.665Z" fill="black"/>
</svg>
