<svg width="986" height="751" viewBox="0 0 986 751" fill="none" xmlns="http://www.w3.org/2000/svg">
<path fill-rule="evenodd" clip-rule="evenodd" d="M0 0H986V750.5H0V0ZM946.5 67H885.5V388.5H946.5V67ZM100.5 69H39.5V390.5H100.5V69ZM542.25 86.3105H741V202H542.25V86.3105ZM741 234H542.25V349H741V234ZM542.25 382.172H741V498H542.25V382.172ZM741.25 532H542V648.25H741.25V532ZM229.75 86.8105H429.5V202H229.75V86.8105ZM429.5 237H229.75V351.311H429.5V237ZM229.25 382.25H429V497.5H229.25V382.25ZM429.25 531.811H230.25V647.5H429.25V531.811Z" fill="currentColor"/>
</svg>
