<svg width="580" height="750" viewBox="0 0 580 750" fill="none" xmlns="http://www.w3.org/2000/svg">
<path fill-rule="evenodd" clip-rule="evenodd" d="M0 0H580V750H0V0ZM383 72H295.125V219H383V72ZM284.875 72H197V219H284.875V72ZM295.125 233H383V380H295.125V233ZM284.875 233H197V380H284.875V233ZM295.125 393.875H383V541.875H295.125V393.875ZM284.875 393.875H197V541.875H284.875V393.875ZM487 75H547V205H487V75ZM547 220H487V350H547V220ZM487 364H547V494H487V364ZM93 75H32V205H93V75ZM32 220H93V350H32V220ZM93 364H32V494H93V364Z" fill="black"/>
</svg>
