<svg width="983" height="750" viewBox="0 0 983 750" fill="none" xmlns="http://www.w3.org/2000/svg">
<path fill-rule="evenodd" clip-rule="evenodd" d="M0 0H983V750H0V0ZM880 69.5625H942V175H880V69.5625ZM647.75 82H743V183.179H647.75V82ZM539 82H634.25V183.179H539V82ZM743 198H647.75V299.679H743V198ZM539 198H634.25V299.679H539V198ZM743 313H647.75V414.929H743V313ZM539 313H634.25V414.929H539V313ZM743 427H647.75V528.929H743V427ZM539 427H634.25V528.929H539V427ZM743 541.25H647.75V643.179H743V541.25ZM539 541.25H634.25V643.179H539V541.25ZM335.75 82H431V183.179H335.75V82ZM227 82H322.25V183.179H227V82ZM431 198H335.75V299.679H431V198ZM227 198H322.25V299.679H227V198ZM431 313H335.75V414.929H431V313ZM227 313H322.25V414.929H227V313ZM431 427H335.75V528.929H431V427ZM227 427H322.25V528.929H227V427ZM431 541.25H335.75V643.179H431V541.25ZM227 541.25H322.25V643.179H227V541.25ZM942 191H880V296.5H942V191ZM880 311.438H942V416.875H880V311.438ZM942 431.5H880V537.5H942V431.5ZM880 553.188H942V658.5H880V553.188ZM99 69.5625H37V175H99V69.5625ZM37 191H99V296.5H37V191ZM99 311.438H37V416.875H99V311.438ZM37 431.5H99V537.5H37V431.5ZM99 553.188H37V658.5H99V553.188Z" fill="black"/>
</svg>
