<svg width="985" height="750" viewBox="0 0 985 750" fill="none" xmlns="http://www.w3.org/2000/svg">
<path fill-rule="evenodd" clip-rule="evenodd" d="M0 0H985V750H0V0ZM919.25 75.4395H945V164.903H919.25V75.4395ZM882.5 176.653H944.25V645.153H882.5V176.653ZM907 75.9033H882.25V164.403H907V75.9033ZM683.061 86H742V170.769H683.061V86ZM742 185.17H539V646H742V185.17ZM670.518 86H611.03V170.769H670.518V86ZM539.792 86H598.914V170.769H539.792V86ZM375.061 86H434V170.769H375.061V86ZM434 185.17H231V646H434V185.17ZM361.5 86H303.5V170.769H361.5V86ZM229.25 86H289.5V170.769H229.25V86ZM99 75.4395H73.25V164.903H99V75.4395ZM98.25 176.653H36.5V645.153H98.25V176.653ZM36.25 75.9033H61V164.403H36.25V75.9033Z" fill="black"/>
</svg>
