<svg width="854" height="750" viewBox="0 0 854 750" fill="none" xmlns="http://www.w3.org/2000/svg">
<path fill-rule="evenodd" clip-rule="evenodd" d="M0 0H854V750H0V0ZM753.913 69.5H814.413V157.375H753.913V69.5ZM515.538 75.1533H610.913V161.306H515.538V75.1533ZM406.413 75.1533H501.788V161.306H406.413V75.1533ZM610.913 174.153H515.538V260.306H610.913V174.153ZM406.413 174.153H501.788V260.306H406.413V174.153ZM610.913 271.153H515.538V357.306H610.913V271.153ZM406.413 271.153H501.788V357.306H406.413V271.153ZM610.913 373.028H515.538V459.181H610.913V373.028ZM406.413 373.028H501.788V459.181H406.413V373.028ZM610.913 470.153H515.538V556.306H610.913V470.153ZM406.413 470.153H501.788V556.306H406.413V470.153ZM610.913 569.903H515.538V656.056H610.913V569.903ZM406.413 569.903H501.788V656.056H406.413V569.903ZM206.538 75.1533H301.913V161.306H206.538V75.1533ZM97.4132 75.1533H192.788V161.306H97.4132V75.1533ZM301.913 174.153H206.538V260.306H301.913V174.153ZM97.4132 174.153H192.788V260.306H97.4132V174.153ZM301.913 271.153H206.538V357.306H301.913V271.153ZM97.4132 271.153H192.788V357.306H97.4132V271.153ZM301.913 373.028H206.538V459.181H301.913V373.028ZM97.4132 373.028H192.788V459.181H97.4132V373.028ZM301.913 470.153H206.538V556.306H301.913V470.153ZM97.4132 470.153H192.788V556.306H97.4132V470.153ZM301.913 569.903H206.538V656.056H301.913V569.903ZM97.4132 569.903H192.788V656.056H97.4132V569.903ZM814.413 168.25H753.913V256.25H814.413V168.25ZM753.913 270.5H814.413V358.625H753.913V270.5ZM814.413 372H753.913V459.875H814.413V372ZM753.913 472.062H814.413V559.5H753.913V472.062ZM814.413 573.062H753.913V661H814.413V573.062Z" fill="black"/>
</svg>
