<svg width="846" height="751" viewBox="0 0 846 751" fill="none" xmlns="http://www.w3.org/2000/svg">
<path fill-rule="evenodd" clip-rule="evenodd" d="M845.174 0.0673828H0.174072V750.067H845.174V0.0673828ZM35.5491 66.0674H99.9241V165.817H35.5491V66.0674ZM35.5491 193.067H99.9241V292.817H35.5491V193.067ZM99.9241 319.067H35.5491V418.817H99.9241V319.067ZM35.5491 445.067H99.9241V544.817H35.5491V445.067ZM225 75H430.625V172.75H225V75ZM225 199.875H430.625V297.625H225V199.875ZM430.625 323.875H225V421.25H430.625V323.875ZM225 447.875H430.625V546.25H225V447.875ZM741.625 75H536V172.75H741.625V75ZM741.625 199.875H536V297.625H741.625V199.875ZM536 323.875H741.625V421.25H536V323.875ZM741.625 447.875H536V546.25H741.625V447.875Z" fill="black"/>
</svg>
