<svg width="639" height="750" viewBox="0 0 639 750" fill="none" xmlns="http://www.w3.org/2000/svg">
<path fill-rule="evenodd" clip-rule="evenodd" d="M0 0H639V750H0V0ZM562.849 69H536.875V140.625H562.849V69ZM575.648 69.0518H600.876V140.625H575.648V69.0518ZM538.242 153H601.25V662.75H538.242V153ZM420.75 83H361.125V168.223H420.75V83ZM215.875 182.701H420V646H215.875V182.701ZM289.625 83H347.813V168.223H289.625V83ZM276.5 83H215.799V168.223H276.5V83ZM36.2501 69.125H62.2238V140.75H36.2501V69.125ZM100.251 69.1768H75.0234V140.75H100.251V69.1768ZM100.625 153.125H37.6171V662.875H100.625V153.125Z" fill="currentColor"/>
</svg>
