<svg width="854" height="750" viewBox="0 0 854 750" fill="none" xmlns="http://www.w3.org/2000/svg">
<path fill-rule="evenodd" clip-rule="evenodd" d="M0 0H854V750H0V0ZM816.125 67.689H752.375V391.875H816.125V67.689ZM197 475C158.892 475 128 394.187 128 294.5C128 194.813 158.892 114 197 114C235.108 114 266 194.813 266 294.5C266 394.187 235.108 475 197 475ZM509 476C470.892 476 440 395.187 440 295.5C440 195.813 470.892 115 509 115C547.108 115 578 195.813 578 295.5C578 395.187 547.108 476 509 476Z" fill="black"/>
</svg>
