<svg width="847" height="752" viewBox="0 0 847 752" fill="none" xmlns="http://www.w3.org/2000/svg">
<path fill-rule="evenodd" clip-rule="evenodd" d="M846.087 0.311035H0.0870361V751.311H846.087V0.311035ZM429.837 86.561H230.087V202.811H429.837V86.561ZM97.837 94.561H38.087V499.561H97.837V94.561ZM230.587 237.061H429.5V352.5H230.587V237.061ZM429.337 382.061H229.587V498.311H429.337V382.061ZM229.587 532H429.337V647.311H229.587V532ZM741 86.561H542.087V202.811H741V86.561ZM542.587 233.811H740.5V349.25H542.587V233.811ZM740.5 382.061H541.587V498.311H740.5V382.061ZM541.587 532H741V647.311H541.587V532Z" fill="black"/>
</svg>
