<svg width="500" height="750" viewBox="0 0 500 750" fill="none" xmlns="http://www.w3.org/2000/svg">
<path fill-rule="evenodd" clip-rule="evenodd" d="M0 0H500V750H0V0ZM400 70H460.75V157.875H400V70ZM284.5 76.5H189.125V162.652H284.5V76.5ZM175.375 76.5H80V162.652H175.375V76.5ZM189.125 175.5H284.5V261.652H189.125V175.5ZM175.375 175.5H80V261.652H175.375V175.5ZM189.125 272.5H284.5V358.652H189.125V272.5ZM175.375 272.5H80V358.652H175.375V272.5ZM189.125 374.375H284.5V460.527H189.125V374.375ZM175.375 374.375H80V460.527H175.375V374.375ZM189.125 471.5H284.5V557.652H189.125V471.5ZM175.375 471.5H80V557.652H175.375V471.5ZM189.125 571.25H284.5V657.402H189.125V571.25ZM175.375 571.25H80V657.402H175.375V571.25ZM460.75 168.75H400V256.75H460.75V168.75ZM400 271H460.75V359.125H400V271ZM460.75 372.5H400V460.375H460.75V372.5ZM400 472.562H460.75V560H400V472.562ZM460.75 573.562H400V661.5H460.75V573.562Z" fill="currentColor"/>
</svg>
