<svg width="641" height="750" viewBox="0 0 641 750" fill="none" xmlns="http://www.w3.org/2000/svg">
<path fill-rule="evenodd" clip-rule="evenodd" d="M0.5 0H640.5V750H0.5V0ZM565.438 77H538.25V165.062H565.438V77ZM577.812 77.125H603.312V165.062H577.812V77.125ZM538.688 178.188H603.25V498.125H538.688V178.188ZM330.085 84H433V168.962H330.085V84ZM213.249 181.457H433V645H213.249V181.457ZM316.164 84H213V168.962H316.164V84ZM37.25 77H64.4375V165.062H37.25V77ZM102.312 77.125H76.8125V165.062H102.312V77.125ZM102.25 178.188H37.6875V498.125H102.25V178.188Z" fill="currentColor"/>
</svg>
