<svg width="988" height="750" viewBox="0 0 988 750" fill="none" xmlns="http://www.w3.org/2000/svg">
<path fill-rule="evenodd" clip-rule="evenodd" d="M0 0H988V750H0V0ZM683.474 75H745V147.5H683.474V75ZM538.629 160.25H744.25V544H538.629V160.25ZM671.75 76.2354H612.5V147.524H671.75V76.2354ZM537 75H598.521V147.25H537V75ZM375.25 75H437V146.907H375.25V75ZM229.621 159.25H435.628V544H229.621V159.25ZM363.5 76.2354H304.25V147.524H363.5V76.2354ZM228 75H290.25V146.25H228V75ZM909.5 76H885.174V165.227H909.5V76ZM922.5 76.3091H948.125V165.42H922.5V76.3091ZM886.75 177.171H948V645.671H886.75V177.171ZM36.1738 76H60.5V165.227H36.1738V76ZM99.125 76.3091H73.5V165.42H99.125V76.3091ZM99 177.171H37.75V645.671H99V177.171Z" fill="black"/>
</svg>
