<svg width="846" height="752" viewBox="0 0 846 752" fill="none" xmlns="http://www.w3.org/2000/svg">
<path fill-rule="evenodd" clip-rule="evenodd" d="M845.174 0.933105H0.174072V751.933H845.174V0.933105ZM98.5 56.1831H32.2991V646.058H98.5V56.1831ZM426.924 86.5H227.174V202H426.924V86.5ZM227.174 237H426.924V352H227.174V237ZM426.924 383.458H227.174V498.5H426.924V383.458ZM227.174 531.674H426.924V648.433H227.174V531.674ZM739.424 86.5H539.674V202H739.424V86.5ZM539.674 233.5H739.424V349H539.674V233.5ZM739.424 383.458H539.674V498.5H739.424V383.458ZM539.674 531.674H739.424V648.433H539.674V531.674Z" fill="black"/>
</svg>
