<svg width="984" height="750" viewBox="0 0 984 750" fill="none" xmlns="http://www.w3.org/2000/svg">
<path fill-rule="evenodd" clip-rule="evenodd" d="M0 0H984V750H0V0ZM944.375 56.25H878.174V646.125H944.375V56.25ZM97.875 56.25H31.6741V646.125H97.875V56.25ZM538.75 85.5669H738.5V201.067H538.75V85.5669ZM739 232.567H539.25V347.567H739V232.567ZM538.75 382.524H738.5V497.567H538.75V382.524ZM738.5 530.741H538.75V647.5H738.5V530.741ZM227.25 86.5669H427V202.067H227.25V86.5669ZM427.5 235.046H227.75V350.546H427.5V235.046ZM227.75 381.025H427.5V497H227.75V381.025ZM427 531.741H227.25V648H427V531.741Z" fill="black"/>
</svg>
