<svg width="642" height="750" viewBox="0 0 642 750" fill="none" xmlns="http://www.w3.org/2000/svg">
<path fill-rule="evenodd" clip-rule="evenodd" d="M0.5 0H641.5V750H0.5V0ZM38.4886 70.125H98.75V164.266H38.4886V70.125ZM540 72H600.261V166.141H540V72ZM540 194.875H600.261V288.875H540V194.875ZM600.261 319.625H540V413.25H600.261V319.625ZM540 444.375H600.261V537.875H540V444.375ZM600.261 567.125H540V660.625H600.261V567.125ZM98.75 193H38.4886V287H98.75V193ZM38.4886 317.75H98.75V411.375H38.4886V317.75ZM98.75 442.5H38.4886V536H98.75V442.5ZM38.4886 565.25H98.75V658.75H38.4886V565.25ZM421 75H216V169.335H421V75ZM421 199.447H216V293.282H421V199.447ZM216 323.394H421V417.229H216V323.394ZM421 443.593H216V539.052H421V443.593ZM216 566.541H421V662H216V566.541Z" fill="currentColor"/>
</svg>
