<svg width="482" height="750" viewBox="0 0 482 750" fill="none" xmlns="http://www.w3.org/2000/svg">
<path fill-rule="evenodd" clip-rule="evenodd" d="M482 0H0V750H482V0ZM218 71H305.75V179.625H218V71ZM317 71H404.75V179.625H317V71ZM305.75 192.75H218V301.375H305.75V192.75ZM317 192.75H404.75V301.375H317V192.75ZM305.75 313.875H218V422.5H305.75V313.875ZM317 313.875H404.75V422.5H317V313.875ZM305.75 433.875H218V542.5H305.75V433.875ZM317 433.875H404.75V542.5H317V433.875ZM92.875 72.75H32.0625V178.875H92.875V72.75ZM32.0625 193.25H92.875V299.375H32.0625V193.25ZM92.875 314.062H32.0625V420.188H92.875V314.062ZM32.0625 434H92.875V540.125H32.0625V434Z" fill="currentColor"/>
</svg>
