<svg width="640" height="750" viewBox="0 0 640 750" fill="none" xmlns="http://www.w3.org/2000/svg">
<path fill-rule="evenodd" clip-rule="evenodd" d="M0 0H640V750H0V0ZM578.812 74.0625H604V146.25H578.812V74.0625ZM538.938 158.062H602.938V546.125H538.938V158.062ZM564.125 74.0625H538.938V146.25H564.125V74.0625ZM322.603 76H422V147.11H322.603V76ZM211.996 158.691H422V545H211.996V158.691ZM310.397 76H211V147.11H310.397V76ZM101.062 74.0625H75.875V146.25H101.062V74.0625ZM100 158.062H36V546.125H100V158.062ZM36 74.0625H61.1875V146.25H36V74.0625Z" fill="black"/>
</svg>
