<svg width="845" height="751" viewBox="0 0 845 751" fill="none" xmlns="http://www.w3.org/2000/svg">
<path fill-rule="evenodd" clip-rule="evenodd" d="M845 0.84668H0V750.847H845V0.84668ZM36 76.7861H60.5V166.25H36V76.7861ZM37.75 178H99.5V646.5H37.75V178ZM98.75 77.25H73.25V165.75H98.75V77.25ZM231 87H289.939V171.769H231V87ZM434 186.17H231V647H434V186.17ZM361.97 87H302.482V171.769H361.97V87ZM374.086 87H433.208V171.769H374.086V87ZM539 87H597.939V171.769H539V87ZM742 186.17H539V647H742V186.17ZM669.5 87H611.5V171.769H669.5V87ZM683.5 87H743.75V171.769H683.5V87Z" fill="black"/>
</svg>
