<svg width="647" height="750" viewBox="0 0 647 750" fill="none" xmlns="http://www.w3.org/2000/svg">
<path fill-rule="evenodd" clip-rule="evenodd" d="M647 0H0V750H647V0ZM173.75 72H86V180.625H173.75V72ZM272.75 72H185V180.625H272.75V72ZM86 193.75H173.75V302.375H86V193.75ZM272.75 193.75H185V302.375H272.75V193.75ZM86 314.875H173.75V423.5H86V314.875ZM272.75 314.875H185V423.5H272.75V314.875ZM86 434.875H173.75V543.5H86V434.875ZM272.75 434.875H185V543.5H272.75V434.875ZM454.75 72H367V180.625H454.75V72ZM553.75 72H466V180.625H553.75V72ZM367 193.75H454.75V302.375H367V193.75ZM553.75 193.75H466V302.375H553.75V193.75ZM367 314.875H454.75V423.5H367V314.875ZM553.75 314.875H466V423.5H553.75V314.875ZM367 434.875H454.75V543.5H367V434.875ZM553.75 434.875H466V543.5H553.75V434.875Z" fill="black"/>
</svg>
