<svg width="852" height="750" viewBox="0 0 852 750" fill="none" xmlns="http://www.w3.org/2000/svg">
<path fill-rule="evenodd" clip-rule="evenodd" d="M0 0H852V750H0V0ZM202.074 73H301V144.413H202.074V73ZM91.9917 156.044H301V544H91.9917V156.044ZM189.926 73H91V144.413H189.926V73ZM520.074 75H619V146.261H520.074V75ZM409.992 157.868H619V545H409.992V157.868ZM507.926 75H409V146.261H507.926V75ZM814.25 76.8125H789.062V165.427H814.25V76.8125ZM814.938 178.427H749.924V498.177H814.938V178.427ZM749.924 77.4268H776.424V165.177H749.924V77.4268Z" fill="black"/>
</svg>
