<svg width="641" height="750" viewBox="0 0 641 750" fill="none" xmlns="http://www.w3.org/2000/svg">
<path fill-rule="evenodd" clip-rule="evenodd" d="M0 0H641V750H0V0ZM542 70.0625H604V175.5H542V70.0625ZM419 85H323.75V186.179H419V85ZM310.25 85H215V186.179H310.25V85ZM323.75 201H419V302.679H323.75V201ZM310.25 201H215V302.679H310.25V201ZM323.75 316H419V417.929H323.75V316ZM310.25 316H215V417.929H310.25V316ZM323.75 430H419V531.929H323.75V430ZM310.25 430H215V531.929H310.25V430ZM323.75 544.25H419V646.179H323.75V544.25ZM310.25 544.25H215V646.179H310.25V544.25ZM604 191.5H542V297H604V191.5ZM542 311.938H604V417.375H542V311.938ZM604 432H542V538H604V432ZM542 553.688H604V659H542V553.688ZM100 70.0625H38V175.5H100V70.0625ZM38 191.5H100V297H38V191.5ZM100 311.938H38V417.375H100V311.938ZM38 432H100V538H38V432ZM100 553.688H38V659H100V553.688Z" fill="currentColor"/>
</svg>
