<svg width="454" height="750" viewBox="0 0 454 750" fill="none" xmlns="http://www.w3.org/2000/svg">
<path fill-rule="evenodd" clip-rule="evenodd" d="M0 0H454V750H0V0ZM425.875 64.25H359V149.625H425.875V64.25ZM173 73H261V158.125H173V73ZM72.125 73H160.5V158.125H72.125V73ZM261 169.375H173V254.786H261V169.375ZM72.1251 169.375H160.94V254.786H72.1251V169.375ZM261 266.044H173V351.455H261V266.044ZM72.1251 266.044H160.94V351.455H72.1251V266.044ZM261 363.351H173V448.762H261V363.351ZM72.1251 363.351H160.94V448.762H72.1251V363.351ZM261 459.382H173V544.793H261V459.382ZM72.1251 459.382H160.94V544.793H72.1251V459.382ZM359 162.125H425.875V247.5H359V162.125ZM425.875 260.25H359V345.625H425.875V260.25ZM359 357.875H425.875V443.25H359V357.875ZM425.875 456.125H359V541.5H425.875V456.125Z" fill="black"/>
</svg>
