<svg width="988" height="750" viewBox="0 0 988 750" fill="none" xmlns="http://www.w3.org/2000/svg">
<path fill-rule="evenodd" clip-rule="evenodd" d="M0 0H988V750H0V0ZM888 94.5H948.5V500.25H888V94.5ZM575 294.5C575 394.187 605.892 475 644 475C682.108 475 713 394.187 713 294.5C713 194.813 682.108 114 644 114C605.892 114 575 194.813 575 294.5ZM263 294.5C263 394.187 293.892 475 332 475C370.108 475 401 394.187 401 294.5C401 194.813 370.108 114 332 114C293.892 114 263 194.813 263 294.5ZM99.5 94.5H39V500.25H99.5V94.5Z" fill="black"/>
</svg>
