<svg width="983" height="750" viewBox="0 0 983 750" fill="none" xmlns="http://www.w3.org/2000/svg">
<path fill-rule="evenodd" clip-rule="evenodd" d="M0 0H983V750H0V0ZM944.025 71.125H883.764V165.491H944.025V71.125ZM944.025 194.294H883.764V288.519H944.025V194.294ZM883.764 319.343H944.025V413.192H883.764V319.343ZM944.025 444.392H883.764V538.115H944.025V444.392ZM883.764 567.436H944.025V661.159H883.764V567.436ZM99.0251 71.125H38.7638V165.491H99.0251V71.125ZM38.7638 194.294H99.0251V288.519H38.7638V194.294ZM99.0251 319.343H38.7638V413.192H99.0251V319.343ZM38.7638 444.392H99.0251V538.115H38.7638V444.392ZM99.0251 567.436H38.7638V661.159H99.0251V567.436ZM542 78H747V172.335H542V78ZM542 202.447H747V296.282H542V202.447ZM747 326.394H542V420.229H747V326.394ZM542 446.593H747V542.052H542V446.593ZM747 569.541H542V665H747V569.541ZM433 75H228V169.335H433V75ZM433 199.447H228V293.282H433V199.447ZM228 323.394H433V417.229H228V323.394ZM433 443.593H228V539.052H433V443.593ZM228 566.541H433V662H228V566.541Z" fill="black"/>
</svg>
