<svg width="643" height="750" viewBox="0 0 643 750" fill="none" xmlns="http://www.w3.org/2000/svg">
<path fill-rule="evenodd" clip-rule="evenodd" d="M0.5 0H642.5V750H0.5V0ZM563.5 76.5625H540.25V164.625H563.5V76.5625ZM577.5 76.6875H602.438V164.625H577.5V76.6875ZM541.5 177.5H602.379V645H541.5V177.5ZM330.085 84H433V168.962H330.085V84ZM213.249 181.457H433V645H213.249V181.457ZM316.164 84H213V168.962H316.164V84ZM40.3124 76.5625H65V164.625H40.3124V76.5625ZM103 76.6875H78.75V164.625H103V76.6875ZM101.441 177.5H40.25V645H101.441V177.5Z" fill="currentColor"/>
</svg>
