<svg width="990" height="750" viewBox="0 0 990 750" fill="none" xmlns="http://www.w3.org/2000/svg">
<path fill-rule="evenodd" clip-rule="evenodd" d="M0 0H990V750H0V0ZM888.375 67.689H952.125V391.875H888.375V67.689ZM264 294.5C264 394.187 294.892 475 333 475C371.108 475 402 394.187 402 294.5C402 194.813 371.108 114 333 114C294.892 114 264 194.813 264 294.5ZM576 295.5C576 395.187 606.892 476 645 476C683.108 476 714 395.187 714 295.5C714 195.813 683.108 115 645 115C606.892 115 576 195.813 576 295.5ZM102.125 67.689H38.375V391.875H102.125V67.689Z" fill="currentColor"/>
</svg>
