<svg width="644" height="750" viewBox="0 0 644 750" fill="none" xmlns="http://www.w3.org/2000/svg">
<path fill-rule="evenodd" clip-rule="evenodd" d="M0 0H644V750H0V0ZM567.438 68H541V139.969H567.438V68ZM579.906 68.25H605.906V140.125H579.906V68.25ZM541.031 152H604.031V662H541.031V152ZM423 72H361V145H423V72ZM421.622 158.159H214.629V546H421.622V158.159ZM289 73H349V145H289V73ZM276 72H213V144H276V72ZM36 68H62.4375V139.969H36V68ZM100.906 68.25H74.9062V140.125H100.906V68.25ZM99.0312 152H36.0312V662H99.0312V152Z" fill="currentColor"/>
</svg>
