<svg width="713" height="750" viewBox="0 0 713 750" fill="none" xmlns="http://www.w3.org/2000/svg">
<path fill-rule="evenodd" clip-rule="evenodd" d="M713 0H0V750H713V0ZM95 75H300.5V169.375H95V75ZM95 199.5H300.5V293.375H95V199.5ZM300.5 323.5H95V417.375H300.5V323.5ZM95 443.75H300.5V539.25H95V443.75ZM300.5 566.75H95V662.25H300.5V566.75ZM408 78H613.5V172.375H408V78ZM408 202.5H613.5V296.375H408V202.5ZM613.5 326.5H408V420.375H613.5V326.5ZM408 446.75H613.5V542.25H408V446.75ZM613.5 569.75H408V665.25H613.5V569.75Z" fill="black"/>
</svg>
