<svg width="891" height="750" viewBox="0 0 891 750" fill="none" xmlns="http://www.w3.org/2000/svg">
<path fill-rule="evenodd" clip-rule="evenodd" d="M0 0H891V750H0V0ZM797.625 72.75H858.438V178.875H797.625V72.75ZM585.602 73H673V180.819H585.602V73ZM487 73H574.398V180.819H487V73ZM673 193.846H585.602V299H673V193.846ZM487 193.846H574.398V299H487V193.846ZM673 314.072H585.602V421H673V314.072ZM487 314.072H574.398V421H487V314.072ZM673 434.5H585.602V541H673V434.5ZM487 434.5H574.398V541H487V434.5ZM305.602 73H393V180.819H305.602V73ZM207 73H294.398V180.819H207V73ZM393 193.846H305.602V299H393V193.846ZM207 193.846H294.398V299H207V193.846ZM393 314.072H305.602V421H393V314.072ZM207 314.072H294.398V421H207V314.072ZM393 434.5H305.602V541H393V434.5ZM207 434.5H294.398V541H207V434.5ZM858.438 193.25H797.625V299.375H858.438V193.25ZM797.625 314.062H858.438V420.188H797.625V314.062ZM858.438 434H797.625V540.125H858.438V434ZM34.625 72.75H95.4375V178.875H34.625V72.75ZM95.4375 193.25H34.625V299.375H95.4375V193.25ZM34.625 314.062H95.4375V420.188H34.625V314.062ZM95.4375 434H34.625V540.125H95.4375V434Z" fill="black"/>
</svg>
