<svg width="636" height="750" viewBox="0 0 636 750" fill="none" xmlns="http://www.w3.org/2000/svg">
<path fill-rule="evenodd" clip-rule="evenodd" d="M0 0H636V750H0V0ZM38 67.5H98.75V155.375H38V67.5ZM536 70H596.75V157.875H536V70ZM416.5 77H321.125V163.152H416.5V77ZM307.375 77H212V163.152H307.375V77ZM321.125 176H416.5V262.152H321.125V176ZM307.375 176H212V262.152H307.375V176ZM321.125 273H416.5V359.152H321.125V273ZM307.375 273H212V359.152H307.375V273ZM321.125 374.875H416.5V461.027H321.125V374.875ZM307.375 374.875H212V461.027H307.375V374.875ZM321.125 472H416.5V558.152H321.125V472ZM307.375 472H212V558.152H307.375V472ZM321.125 571.75H416.5V657.902H321.125V571.75ZM307.375 571.75H212V657.902H307.375V571.75ZM596.75 168.75H536V256.75H596.75V168.75ZM536 271H596.75V359.125H536V271ZM596.75 372.5H536V460.375H596.75V372.5ZM536 472.562H596.75V560H536V472.562ZM596.75 573.562H536V661.5H596.75V573.562ZM98.75 166.25H38V254.25H98.75V166.25ZM38 268.5H98.75V356.625H38V268.5ZM98.75 370H38V457.875H98.75V370ZM38 470.062H98.75V557.5H38V470.062ZM98.75 571.062H38V659H98.75V571.062Z" fill="currentColor"/>
</svg>
