<svg width="764" height="751" viewBox="0 0 764 751" fill="none" xmlns="http://www.w3.org/2000/svg">
<path fill-rule="evenodd" clip-rule="evenodd" d="M764 0.823242H0V750.823H764V0.823242ZM294.398 74H207V181.819H294.398V74ZM393 74H305.602V181.819H393V74ZM207 194.846H294.398V300H207V194.846ZM393 194.846H305.602V300H393V194.846ZM207 315.072H294.398V422H207V315.072ZM393 315.072H305.602V422H393V315.072ZM207 435.5H294.398V542H207V435.5ZM393 435.5H305.602V542H393V435.5ZM574.398 74H487V181.819H574.398V74ZM673 74H585.602V181.819H673V74ZM487 194.846H574.398V300H487V194.846ZM673 194.846H585.602V300H673V194.846ZM487 315.072H574.398V422H487V315.072ZM673 315.072H585.602V422H673V315.072ZM487 435.5H574.398V542H487V435.5ZM673 435.5H585.602V542H673V435.5ZM95.375 74.0732H34.5625V180.198H95.375V74.0732ZM34.5625 194.573H95.375V300.698H34.5625V194.573ZM95.375 315.386H34.5625V421.511H95.375V315.386ZM34.5625 435.323H95.375V541.448H34.5625V435.323Z" fill="black"/>
</svg>
