<svg width="870" height="751" viewBox="0 0 870 751" fill="none" xmlns="http://www.w3.org/2000/svg">
<path fill-rule="evenodd" clip-rule="evenodd" d="M870 0.0673828H0V750.067H870V0.0673828ZM223 75H329.028V281.206H223V75ZM342.344 75H449V281.206H342.344V75ZM328.777 294.315H223.377V498H328.777V294.315ZM342.595 294.945H449V498H342.595V294.945ZM559 75H665.028V281.206H559V75ZM678.344 75H785V281.206H678.344V75ZM664.777 294.315H559.377V498H664.777V294.315ZM678.595 294.945H785V498H678.595V294.945ZM104.5 77H28.5V279.5H104.5V77ZM104.316 292.83H28.5V497H104.316V292.83Z" fill="black"/>
</svg>
