<svg width="986" height="750" viewBox="0 0 986 750" fill="none" xmlns="http://www.w3.org/2000/svg">
<path fill-rule="evenodd" clip-rule="evenodd" d="M0 0H986V750H0V0ZM98.25 55.25H31.5V642.75H98.25V55.25ZM881 57.75H947.75V645.25H881V57.75ZM574 295C574 394.411 604.892 475 643 475C681.108 475 712 394.411 712 295C712 195.589 681.108 115 643 115C604.892 115 574 195.589 574 295ZM262 296C262 395.411 292.892 476 331 476C369.108 476 400 395.411 400 296C400 196.589 369.108 116 331 116C292.892 116 262 196.589 262 296Z" fill="black"/>
</svg>
