<svg width="982" height="750" viewBox="0 0 982 750" fill="none" xmlns="http://www.w3.org/2000/svg">
<path fill-rule="evenodd" clip-rule="evenodd" d="M0 0H982V750H0V0ZM904.125 76.8125H879.625V164.875H904.125V76.8125ZM916.875 76.9375H941.812V164.875H916.875V76.9375ZM880.25 176.5H942V644H880.25V176.5ZM755.25 85H651.75V170H755.25V85ZM755.25 182.5H534.25V646.25H755.25V182.5ZM534 85H637.75V170H534V85ZM429 85.1533H326.085V170.115H429V85.1533ZM429 182.61H209.249V646.153H429V182.61ZM209 85.1533H312.164V170.115H209V85.1533ZM36.375 76.8125H60.875V164.875H36.375V76.8125ZM98.5625 76.9375H73.625V164.875H98.5625V76.9375ZM98.75 176.5H37V644H98.75V176.5Z" fill="currentColor"/>
</svg>
