<svg width="576" height="750" viewBox="0 0 576 750" fill="none" xmlns="http://www.w3.org/2000/svg">
<path fill-rule="evenodd" clip-rule="evenodd" d="M0 0H576V750H0V0ZM95 64H27V150H95V64ZM481 64.25H547.875V149.625H481V64.25ZM381 74H293.874V158.982H381V74ZM281.498 74H194V158.982H281.498V74ZM293.874 170.213H381V255.481H293.874V170.213ZM281.934 170.213H194V255.481H281.934V170.213ZM293.874 266.719H381V351.987H293.874V266.719ZM281.934 266.719H194V351.987H281.934V266.719ZM293.874 363.863H381V449.13H293.874V363.863ZM281.934 363.863H194V449.13H281.934V363.863ZM293.874 459.732H381V545H293.874V459.732ZM281.934 459.732H194V545H281.934V459.732ZM547.875 162.125H481V247.5H547.875V162.125ZM481 260.25H547.875V345.625H481V260.25ZM547.875 357.875H481V443.25H547.875V357.875ZM481 456.125H547.875V541.5H481V456.125ZM27 162H95V247H27V162ZM95 260H27V346H95V260ZM27 358H95V443H27V358ZM95 456H27V541H95V456Z" fill="currentColor"/>
</svg>
