<svg width="482" height="750" viewBox="0 0 482 750" fill="none" xmlns="http://www.w3.org/2000/svg">
<path fill-rule="evenodd" clip-rule="evenodd" d="M0 0H482V750H0V0ZM388 72H450V179H388V72ZM388 193H450V300H388V193ZM450 313H388V420H450V313ZM388 434H450V541H388V434ZM176.133 73H264V180.819H176.133V73ZM77 73H164.867V180.819H77V73ZM264 194H176V300H264V194ZM77 194H165V300H77V194ZM264 314H176V421H264V314ZM77 314H165V421H77V314ZM264 434H176V541H264V434ZM77 434H165V541H77V434Z" fill="currentColor"/>
</svg>
