<svg width="870" height="750" viewBox="0 0 870 750" fill="none" xmlns="http://www.w3.org/2000/svg">
<path fill-rule="evenodd" clip-rule="evenodd" d="M0 0H870V750H0V0ZM645 75H538.972V281.206H645V75ZM525.656 75H419V281.206H525.656V75ZM539.223 294.315H644.623V498H539.223V294.315ZM525.405 294.945H419V498H525.405V294.945ZM309 75H202.972V281.206H309V75ZM189.656 75H83V281.206H189.656V75ZM203.223 294.315H308.623V498H203.223V294.315ZM189.405 294.945H83V498H189.405V294.945ZM759.5 76.9326H835.5V279.433H759.5V76.9326ZM759.684 292.763H835.5V496.933H759.684V292.763Z" fill="black"/>
</svg>
