<svg width="1010" height="750" viewBox="0 0 1010 750" fill="none" xmlns="http://www.w3.org/2000/svg">
<path fill-rule="evenodd" clip-rule="evenodd" d="M0 0H1010V750H0V0ZM969 71H912.062V350.5H969V71ZM969 363.688H912.2V643.25H969V363.688ZM671.25 76H760V351.25H671.25V76ZM571 76H659.75V351.25H571V76ZM760 365.25H671.25V640.5H760V365.25ZM571 365.25H659.75V640.5H571V365.25ZM342.25 76H431V351.25H342.25V76ZM242 76H330.75V351.25H242V76ZM431 365.25H342.25V640.5H431V365.25ZM242 365.25H330.75V640.5H242V365.25ZM41.0625 71H98V350.5H41.0625V71ZM41.2004 363.688H98V643.25H41.2004V363.688Z" fill="currentColor"/>
</svg>
