<svg width="368" height="750" viewBox="0 0 368 750" fill="none" xmlns="http://www.w3.org/2000/svg">
<path fill-rule="evenodd" clip-rule="evenodd" d="M368 0H0V750H368V0ZM80.375 77.8477H175.75V164H80.375V77.8477ZM189.5 77.8477H284.875V164H189.5V77.8477ZM175.75 176.848H80.375V263H175.75V176.848ZM189.5 176.848H284.875V263H189.5V176.848ZM175.75 273.848H80.375V360H175.75V273.848ZM189.5 273.848H284.875V360H189.5V273.848ZM175.75 375.723H80.375V461.875H175.75V375.723ZM189.5 375.723H284.875V461.875H189.5V375.723ZM175.75 472.848H80.375V559H175.75V472.848ZM189.5 472.848H284.875V559H189.5V472.848ZM175.75 572.598H80.375V658.75H175.75V572.598ZM189.5 572.598H284.875V658.75H189.5V572.598Z" fill="black"/>
</svg>
