<svg width="844" height="751" viewBox="0 0 844 751" fill="none" xmlns="http://www.w3.org/2000/svg">
<path fill-rule="evenodd" clip-rule="evenodd" d="M844 0.0673828H0V750.067H844V0.0673828ZM34.375 76.5674H105.375V198.192H34.375V76.5674ZM427 85H228V200.027H427V85ZM427 233.55H228V348.577H427V233.55ZM228 383.098H427V498H228V383.098ZM738 85H539V200.027H738V85ZM738 233.55H539V348.577H738V233.55ZM539 383.098H738V498H539V383.098ZM105.375 229.317H34.375V347.067H105.375V229.317ZM34.375 378.317H105.375V496.067H34.375V378.317Z" fill="black"/>
</svg>
