<svg width="869" height="750" viewBox="0 0 869 750" fill="none" xmlns="http://www.w3.org/2000/svg">
<path fill-rule="evenodd" clip-rule="evenodd" d="M0 0H869V750H0V0ZM771.062 71H828V350.5H771.062V71ZM771.2 363.688H828V643.25H771.2V363.688ZM627 76H538.25V351.25H627V76ZM526.75 76H438V351.25H526.75V76ZM538.25 365.25H627V640.5H538.25V365.25ZM526.75 365.25H438V640.5H526.75V365.25ZM297.913 76H209.163V351.25H297.913V76ZM197.663 76H108.913V351.25H197.663V76ZM209.163 365.25H297.913V640.5H209.163V365.25ZM197.663 365.25H108.913V640.5H197.663V365.25Z" fill="currentColor"/>
</svg>
