<svg width="846" height="751" viewBox="0 0 846 751" fill="none" xmlns="http://www.w3.org/2000/svg">
<path fill-rule="evenodd" clip-rule="evenodd" d="M846 0.0908203H0V750.091H846V0.0908203ZM99.2362 71.2158H38.9749V165.582H99.2362V71.2158ZM99.2362 194.385H38.9749V288.61H99.2362V194.385ZM38.9749 319.434H99.2362V413.283H38.9749V319.434ZM99.2362 444.482H38.9749V538.206H99.2362V444.482ZM38.9749 567.526H99.2362V661.25H38.9749V567.526ZM432 75H227V169.335H432V75ZM432 199.447H227V293.282H432V199.447ZM227 323.394H432V417.229H227V323.394ZM432 443.593H227V539.052H432V443.593ZM227 566.541H432V662H227V566.541ZM541 78H746V172.335H541V78ZM541 202.447H746V296.282H541V202.447ZM746 326.394H541V420.229H746V326.394ZM541 446.593H746V542.052H541V446.593ZM746 569.541H541V665H746V569.541Z" fill="currentColor"/>
</svg>
