<svg width="852" height="750" viewBox="0 0 852 750" fill="none" xmlns="http://www.w3.org/2000/svg">
<path fill-rule="evenodd" clip-rule="evenodd" d="M0 0H852V750H0V0ZM746.174 56.25H812.375V646.125H746.174V56.25ZM406.75 85.5669H606.5V201.067H406.75V85.5669ZM607 232.567H407.25V347.567H607V232.567ZM406.75 382.524H606.5V497.567H406.75V382.524ZM606.5 530.741H406.75V647.5H606.5V530.741ZM95.25 86.5669H295V202.067H95.25V86.5669ZM295.5 235.046H95.75V350.546H295.5V235.046ZM95.75 381.025H295.5V497H95.75V381.025ZM295 531.741H95.25V648H295V531.741Z" fill="black"/>
</svg>
