<svg width="642" height="750" viewBox="0 0 642 750" fill="none" xmlns="http://www.w3.org/2000/svg">
<path fill-rule="evenodd" clip-rule="evenodd" d="M0 0H642V750H0V0ZM566.375 76.875H539.75V163.625H566.375V76.875ZM578.75 76.9375H604.125V163.625H578.75V76.9375ZM540 176.875H604.812V496.5H540V176.875ZM425 82H364.5V167.353H425V82ZM216.625 181.853H425V645.853H216.625V181.853ZM290.562 82H351.625V167.353H290.562V82ZM278.125 82H217.438V167.353H278.125V82ZM36.8125 76.875H63.4375V163.625H36.8125V76.875ZM101.188 76.9375H75.8125V163.625H101.188V76.9375ZM101.875 176.875H37.0625V496.5H101.875V176.875Z" fill="currentColor"/>
</svg>
