<svg width="843" height="751" viewBox="0 0 843 751" fill="none" xmlns="http://www.w3.org/2000/svg">
<path fill-rule="evenodd" clip-rule="evenodd" d="M843 0.84668H0V750.847H843V0.84668ZM98 77.4092H73.5V165.472H98V77.4092ZM35.8125 77.5342H60.75V165.472H35.8125V77.5342ZM37 178.347H98.75V645.847H37V178.347ZM313.5 86H210V171H313.5V86ZM431 183.5H210V647.25H431V183.5ZM327.5 86H431.25V171H327.5V86ZM637.915 86H535V170.962H637.915V86ZM754.751 183.457H535V647H754.751V183.457ZM651.836 86H755V170.962H651.836V86Z" fill="currentColor"/>
</svg>
