<svg width="981" height="750" viewBox="0 0 981 750" fill="none" xmlns="http://www.w3.org/2000/svg">
<path fill-rule="evenodd" clip-rule="evenodd" d="M0 0H981V750H0V0ZM430 73H331.074V144.413H430V73ZM430 156.044H220.992V544H430V156.044ZM220 73H318.926V144.413H220V73ZM748 75H649.074V146.261H748V75ZM748 157.868H538.992V545H748V157.868ZM538 75H636.926V146.261H538V75ZM918.062 76.8125H943.25V165.427H918.062V76.8125ZM878.924 178.427H943.938V498.177H878.924V178.427ZM905.424 77.4268H878.924V165.177H905.424V77.4268ZM102.25 76.8125H77.0625V165.427H102.25V76.8125ZM102.938 178.427H37.9241V498.177H102.938V178.427ZM37.9241 77.4268H64.4241V165.177H37.9241V77.4268Z" fill="currentColor"/>
</svg>
