<svg width="608" height="750" viewBox="0 0 608 750" fill="none" xmlns="http://www.w3.org/2000/svg">
<path fill-rule="evenodd" clip-rule="evenodd" d="M0 0H608V750H0V0ZM514 72H576V179H514V72ZM514 193H576V300H514V193ZM576 313H514V420H576V313ZM514 434H576V541H514V434ZM93 72H31V179H93V72ZM31 193H93V300H31V193ZM93 313H31V420H93V313ZM31 434H93V541H31V434ZM317.133 73H405V180.819H317.133V73ZM218 73H305.867V180.819H218V73ZM405 194H317V300H405V194ZM218 194H306V300H218V194ZM405 314H317V421H405V314ZM218 314H306V421H218V314ZM405 434H317V541H405V434ZM218 434H306V541H218V434Z" fill="black"/>
</svg>
