<svg width="847" height="751" viewBox="0 0 847 751" fill="none" xmlns="http://www.w3.org/2000/svg">
<path fill-rule="evenodd" clip-rule="evenodd" d="M846.913 0.579102H0.913208V750.579H846.913V0.579102ZM228 75H291.224V146.907H228V75ZM229.372 160.25H435.379V544H229.372V160.25ZM363.8 76.2355H304.193V147.525H363.8V76.2355ZM375.771 75H437V148.142H375.771V75ZM536 75H599.224V146.907H536V75ZM537.372 160.25H743.379V544H537.372V160.25ZM671.8 76.2355H612.193V147.525H671.8V76.2355ZM683.771 75H745V148.142H683.771V75ZM37.0382 77H64V164.5H37.0382V77ZM37.75 177.5H102.101V497.5H37.75V177.5ZM102.101 77H75.75V164.25H102.101V77Z" fill="black"/>
</svg>
