<svg width="454" height="750" viewBox="0 0 454 750" fill="none" xmlns="http://www.w3.org/2000/svg">
<path fill-rule="evenodd" clip-rule="evenodd" d="M454 0H0V750H454V0ZM28.125 64.25H95V149.625H28.125V64.25ZM281 73H193V158.125H281V73ZM381.875 73H293.5V158.125H381.875V73ZM193 169.375H281V254.786H193V169.375ZM381.875 169.375H293.06V254.786H381.875V169.375ZM193 266.044H281V351.455H193V266.044ZM381.875 266.044H293.06V351.455H381.875V266.044ZM193 363.351H281V448.762H193V363.351ZM381.875 363.351H293.06V448.762H381.875V363.351ZM193 459.382H281V544.793H193V459.382ZM381.875 459.382H293.06V544.793H381.875V459.382ZM95 162.125H28.125V247.5H95V162.125ZM28.125 260.25H95V345.625H28.125V260.25ZM95 357.875H28.125V443.25H95V357.875ZM28.125 456.125H95V541.5H28.125V456.125Z" fill="black"/>
</svg>
