<svg width="984" height="750" viewBox="0 0 984 750" fill="none" xmlns="http://www.w3.org/2000/svg">
<path fill-rule="evenodd" clip-rule="evenodd" d="M0 0H984V750H0V0ZM683.75 74H745V147.25H683.75V74ZM537.621 159.25H743.628V545.5H537.621V159.25ZM670.5 75.75H611.75V146.524H670.5V75.75ZM536 74H598.25V146.25H536V74ZM374.25 74H436V147.5H374.25V74ZM228.621 159.25H434.628V543H228.621V159.25ZM362.25 75.2354H303.5V146.524H362.25V75.2354ZM227 74H289.75V147.142H227V74ZM919.913 76.4209H946.875V163.921H919.913V76.4209ZM881.812 176.921H946.163V496.921H881.812V176.921ZM908.163 76.4209H881.812V163.671H908.163V76.4209ZM100.875 76.4209H73.9132V163.921H100.875V76.4209ZM100.163 176.921H35.8125V496.921H100.163V176.921ZM35.8125 76.4209H62.1632V163.671H35.8125V76.4209Z" fill="black"/>
</svg>
