<svg width="853" height="750" viewBox="0 0 853 750" fill="none" xmlns="http://www.w3.org/2000/svg">
<path fill-rule="evenodd" clip-rule="evenodd" d="M0 0H853V750H0V0ZM813 75.4395H787.25V164.903H813V75.4395ZM812.25 176.653H750.5V645.153H812.25V176.653ZM750.25 75.9033H775V164.403H750.25V75.9033ZM610 86H551.061V170.769H610V86ZM407 185.17H610V646H407V185.17ZM479.03 86H538.518V170.769H479.03V86ZM466.914 86H407.792V170.769H466.914V86ZM302 86H243.061V170.769H302V86ZM99 185.17H302V646H99V185.17ZM171.5 86H229.5V170.769H171.5V86ZM157.5 86H97.25V170.769H157.5V86Z" fill="black"/>
</svg>
