<svg width="647" height="750" viewBox="0 0 647 750" fill="none" xmlns="http://www.w3.org/2000/svg">
<path fill-rule="evenodd" clip-rule="evenodd" d="M647 0H0V750H647V0ZM179.058 73H91V157.621H179.058V73ZM280 73H191.567V157.621H280V73ZM91 168.804H179.058V253.71H91V168.804ZM280 168.804H191.126V253.71H280V168.804ZM91 264.901H179.058V349.807H91V264.901ZM280 264.901H191.126V349.807H280V264.901ZM91 361.632H179.058V446.537H91V361.632ZM280 361.632H191.126V446.537H280V361.632ZM91 457.094H179.058V542H91V457.094ZM280 457.094H191.126V542H280V457.094ZM455.058 73H367V157.441H455.058V73ZM556 73H467.567V157.441H556V73ZM367 168.6H455.058V253.325H367V168.6ZM556 168.6H467.126V253.325H556V168.6ZM367 264.492H455.058V349.217H367V264.492ZM556 264.492H467.126V349.217H556V264.492ZM367 361.016H455.058V445.741H367V361.016ZM556 361.016H467.126V445.741H556V361.016ZM367 456.276H455.058V541H367V456.276ZM556 456.276H467.126V541H556V456.276Z" fill="black"/>
</svg>
