<svg width="852" height="750" viewBox="0 0 852 750" fill="none" xmlns="http://www.w3.org/2000/svg">
<path fill-rule="evenodd" clip-rule="evenodd" d="M0 0H852V750H0V0ZM749.625 76.8125H774.125V164.875H749.625V76.8125ZM811.812 76.9375H786.875V164.875H811.812V76.9375ZM812 176.5H750.25V644H812V176.5ZM521.75 85H625.25V170H521.75V85ZM404.25 182.5H625.25V646.25H404.25V182.5ZM507.75 85H404V170H507.75V85ZM196.085 85.1533H299V170.115H196.085V85.1533ZM79.2486 182.61H299V646.153H79.2486V182.61ZM182.164 85.1533H79V170.115H182.164V85.1533Z" fill="black"/>
</svg>
