<svg width="843" height="751" viewBox="0 0 843 751" fill="none" xmlns="http://www.w3.org/2000/svg">
<path fill-rule="evenodd" clip-rule="evenodd" d="M843 0.334961H0V750.335H843V0.334961ZM102.5 77.2725H75.3125V165.335H102.5V77.2725ZM37.4375 77.3975H62.9375V165.335H37.4375V77.3975ZM37.5 178.46H102.062V498.397H37.5V178.46ZM312.5 86H209V171H312.5V86ZM430 183.5H209V647.25H430V183.5ZM326.5 86H430.25V171H326.5V86ZM637.5 86H534V171H637.5V86ZM755 183.5H534V647.25H755V183.5ZM651.5 86H755.25V171H651.5V86Z" fill="black"/>
</svg>
