<svg width="981" height="750" viewBox="0 0 981 750" fill="none" xmlns="http://www.w3.org/2000/svg">
<path fill-rule="evenodd" clip-rule="evenodd" d="M0 0H981V750H0V0ZM905.688 76.9375H878.5V165H905.688V76.9375ZM918.062 77.0625H943.562V165H918.062V77.0625ZM878.938 178.125H943.5V498.062H878.938V178.125ZM755.25 85.665H651.75V170.665H755.25V85.665ZM755.25 183.165H534.25V646.915H755.25V183.165ZM534 85.665H637.75V170.665H534V85.665ZM430.25 85.665H326.75V170.665H430.25V85.665ZM430.25 183.165H209.25V646.915H430.25V183.165ZM209 85.665H312.75V170.665H209V85.665ZM37.1875 76.9375H64.375V165H37.1875V76.9375ZM102.25 77.0625H76.75V165H102.25V77.0625ZM102.188 178.125H37.625V498.062H102.188V178.125Z" fill="black"/>
</svg>
