<svg width="1010" height="750" viewBox="0 0 1010 750" fill="none" xmlns="http://www.w3.org/2000/svg">
<path fill-rule="evenodd" clip-rule="evenodd" d="M0 0H1010V750H0V0ZM678.972 75H785V281.206H678.972V75ZM559 75H665.656V281.206H559V75ZM784.623 294.315H679.223V498H784.623V294.315ZM559 294.945H665.405V498H559V294.945ZM342.972 75H449V281.206H342.972V75ZM223 75H329.656V281.206H223V75ZM448.623 294.315H343.223V498H448.623V294.315ZM223 294.945H329.405V498H223V294.945ZM975.5 76.9326H899.5V279.433H975.5V76.9326ZM975.5 292.763H899.684V496.933H975.5V292.763ZM28.5 76.9326H104.5V279.433H28.5V76.9326ZM28.684 292.763H104.5V496.933H28.684V292.763Z" fill="black"/>
</svg>
