<svg width="645" height="750" viewBox="0 0 645 750" fill="none" xmlns="http://www.w3.org/2000/svg">
<path fill-rule="evenodd" clip-rule="evenodd" d="M0 0H645V750H0V0ZM539.625 76.5H610.625V198.125H539.625V76.5ZM218 82H418.375V197.375H218V82ZM218 231H418.375V346.375H218V231ZM418.375 381H218V496.25H418.375V381ZM610.625 229.25H539.625V347H610.625V229.25ZM539.625 378.25H610.625V496H539.625V378.25ZM105 76.5H34V198.125H105V76.5ZM34 229.25H105V347H34V229.25ZM105 378.25H34V496H105V378.25Z" fill="black"/>
</svg>
