<svg width="843" height="751" viewBox="0 0 843 751" fill="none" xmlns="http://www.w3.org/2000/svg">
<path fill-rule="evenodd" clip-rule="evenodd" d="M843 0.0908203H0V750.091H843V0.0908203ZM41.5 74.9658H95.5V192.341H41.5V74.9658ZM41.5 224.841H95.5V342.591H41.5V224.841ZM95.5 375.716H41.5V493.091H95.5V375.716ZM41.5 525.591H95.5V643.341H41.5V525.591ZM229 82H425V198.349H229V82ZM229 231.717H425V346.941H229V231.717ZM425 379.684H229V496.783H425V379.684ZM229 528.901H425V646H229V528.901ZM734 82H537V198.349H734V82ZM734 231.717H537V346.941H734V231.717ZM537 379.684H734V496.783H537V379.684ZM734 528.901H537V646H734V528.901Z" fill="black"/>
</svg>
