<svg width="714" height="750" viewBox="0 0 714 750" fill="none" xmlns="http://www.w3.org/2000/svg">
<path fill-rule="evenodd" clip-rule="evenodd" d="M713.5 0H0.5V750H713.5V0ZM192.25 81H97V182.18H192.25V81ZM301 81H205.75V182.18H301V81ZM97 197H192.25V298.68H97V197ZM301 197H205.75V298.68H301V197ZM97 312H192.25V413.93H97V312ZM301 312H205.75V413.93H301V312ZM97 426H192.25V527.93H97V426ZM301 426H205.75V527.93H301V426ZM97 540.25H192.25V642.18H97V540.25ZM301 540.25H205.75V642.18H301V540.25ZM504.25 81H409V182.18H504.25V81ZM613 81H517.75V182.18H613V81ZM409 197H504.25V298.68H409V197ZM613 197H517.75V298.68H613V197ZM409 312H504.25V413.93H409V312ZM613 312H517.75V413.93H613V312ZM409 426H504.25V527.93H409V426ZM613 426H517.75V527.93H613V426ZM409 540.25H504.25V642.18H409V540.25ZM613 540.25H517.75V642.18H613V540.25Z" fill="currentColor"/>
</svg>
