<svg width="504" height="750" viewBox="0 0 504 750" fill="none" xmlns="http://www.w3.org/2000/svg">
<path fill-rule="evenodd" clip-rule="evenodd" d="M0 0H504V750H0V0ZM467 70.0625H405V175.5H467V70.0625ZM190.75 84H286V185.179H190.75V84ZM82 84H177.25V185.179H82V84ZM286 200H190.75V301.679H286V200ZM82 200H177.25V301.679H82V200ZM286 315H190.75V416.929H286V315ZM82 315H177.25V416.929H82V315ZM286 429H190.75V530.929H286V429ZM82 429H177.25V530.929H82V429ZM286 543.25H190.75V645.179H286V543.25ZM82 543.25H177.25V645.179H82V543.25ZM405 191.5H467V297H405V191.5ZM467 311.938H405V417.375H467V311.938ZM405 432H467V538H405V432ZM467 553.688H405V659H467V553.688Z" fill="black"/>
</svg>
