<svg width="984" height="750" viewBox="0 0 984 750" fill="none" xmlns="http://www.w3.org/2000/svg">
<path fill-rule="evenodd" clip-rule="evenodd" d="M0 0H984V750H0V0ZM908.182 76.875H881.25V163.625H908.182V76.875ZM920.7 76.9375H946.367V163.625H920.7V76.9375ZM881.503 176.875H947.062V496.5H881.503V176.875ZM681.351 85H740V169.769H681.351V85ZM740 184.17H538V645H740V184.17ZM668.87 85H609.675V169.769H668.87V85ZM538.788 85H597.618V169.769H538.788V85ZM372.351 85H431V169.769H372.351V85ZM431 184.17H229V645H431V184.17ZM359.87 85H300.675V169.769H359.87V85ZM229.788 85H288.618V169.769H229.788V85ZM35.25 76.875H62.1819V163.625H35.25V76.875ZM100.367 76.9375H74.6996V163.625H100.367V76.9375ZM101.062 176.875H35.5029V496.5H101.062V176.875Z" fill="black"/>
</svg>
