<svg width="870" height="751" viewBox="0 0 870 751" fill="none" xmlns="http://www.w3.org/2000/svg">
<path fill-rule="evenodd" clip-rule="evenodd" d="M869.913 0.0908203H0.913208V750.091H869.913V0.0908203ZM98.8507 71.0908H41.9132V350.591H98.8507V71.0908ZM98.7128 363.778H41.9132V643.341H98.7128V363.778ZM242.913 76.0908H331.663V351.341H242.913V76.0908ZM343.163 76.0908H431.913V351.341H343.163V76.0908ZM331.663 365.341H242.913V640.591H331.663V365.341ZM343.163 365.341H431.913V640.591H343.163V365.341ZM572 76.0908H660.75V351.341H572V76.0908ZM672.25 76.0908H761V351.341H672.25V76.0908ZM660.75 365.341H572V640.591H660.75V365.341ZM672.25 365.341H761V640.591H672.25V365.341Z" fill="black"/>
</svg>
