<svg width="646" height="750" viewBox="0 0 646 750" fill="none" xmlns="http://www.w3.org/2000/svg">
<path fill-rule="evenodd" clip-rule="evenodd" d="M0.5 0H645.5V750H0.5V0ZM424 72H364V145H424V72ZM423 158H217V546H423V158ZM292 74H351V145H292V74ZM278 72H216V145H278V72ZM584.188 74.5625H609.375V146.75H584.188V74.5625ZM544.312 158.562H608.312V546.625H544.312V158.562ZM569.5 74.5625H544.312V146.75H569.5V74.5625ZM102.062 74.5625H76.875V146.75H102.062V74.5625ZM101 158.562H37V546.625H101V158.562ZM37 74.5625H62.1875V146.75H37V74.5625Z" fill="currentColor"/>
</svg>
