<svg width="332" height="750" viewBox="0 0 332 750" fill="none" xmlns="http://www.w3.org/2000/svg">
<path fill-rule="evenodd" clip-rule="evenodd" d="M332 0H0V750H332V0ZM70.75 72.75H158.75V157.875H70.75V72.75ZM171.25 72.75H259.625V157.875H171.25V72.75ZM158.75 169.125H70.75V254.536H158.75V169.125ZM170.81 169.125H259.625V254.536H170.81V169.125ZM158.75 265.794H70.75V351.205H158.75V265.794ZM170.81 265.794H259.625V351.205H170.81V265.794ZM158.75 363.101H70.75V448.512H158.75V363.101ZM170.81 363.101H259.625V448.512H170.81V363.101ZM158.75 459.132H70.75V544.543H158.75V459.132ZM170.81 459.132H259.625V544.543H170.81V459.132Z" fill="currentColor"/>
</svg>
