<svg width="844" height="751" viewBox="0 0 844 751" fill="none" xmlns="http://www.w3.org/2000/svg">
<path fill-rule="evenodd" clip-rule="evenodd" d="M844 0.579102H0V750.579H844V0.579102ZM320.75 74H221V145.375H320.75V74ZM431.75 157H221V544.75H431.75V157ZM333 74H432.75V145.375H333V74ZM638.75 75H539V146.375H638.75V75ZM749.75 158H539V545.75H749.75V158ZM651 75H750.75V146.375H651V75ZM99 76.2666H73.5V165.25H99V76.2666ZM35.875 76.4984H60.5V165.251H35.875V76.4984ZM37.25 177.25H99V646.25H37.25V177.25Z" fill="currentColor"/>
</svg>
