<svg width="982" height="750" viewBox="0 0 982 750" fill="none" xmlns="http://www.w3.org/2000/svg">
<path fill-rule="evenodd" clip-rule="evenodd" d="M0 0H982V750H0V0ZM433 73H333.603V144.413H433V73ZM433 156.044H222.996V544H433V156.044ZM222 73H321.397V144.413H222V73ZM751 75H651.603V146.261H751V75ZM751 157.868H540.996V545H751V157.868ZM540 75H639.397V146.261H540V75ZM903.75 75.9375H879.75V164.921H903.75V75.9375ZM915.75 76.1689H942V164.921H915.75V76.1689ZM881.25 176.921H941.5V645.921H881.25V176.921ZM37 75.9375H61V164.921H37V75.9375ZM99.25 76.1689H73V164.921H99.25V76.1689ZM98.75 176.921H38.5V645.921H98.75V176.921Z" fill="black"/>
</svg>
