<svg width="845" height="751" viewBox="0 0 845 751" fill="none" xmlns="http://www.w3.org/2000/svg">
<path fill-rule="evenodd" clip-rule="evenodd" d="M844.174 0.0908203H0.174072V750.091H844.174V0.0908203ZM37.1741 70.1533H99.1741V175.591H37.1741V70.1533ZM227 82H322.25V183.179H227V82ZM335.75 82H431V183.179H335.75V82ZM322.25 198H227V299.679H322.25V198ZM335.75 198H431V299.679H335.75V198ZM322.25 313H227V414.929H322.25V313ZM335.75 313H431V414.929H335.75V313ZM322.25 427H227V528.929H322.25V427ZM335.75 427H431V528.929H335.75V427ZM322.25 541.25H227V643.179H322.25V541.25ZM335.75 541.25H431V643.179H335.75V541.25ZM539 82H634.25V183.179H539V82ZM647.75 82H743V183.179H647.75V82ZM634.25 198H539V299.679H634.25V198ZM647.75 198H743V299.679H647.75V198ZM634.25 313H539V414.929H634.25V313ZM647.75 313H743V414.929H647.75V313ZM634.25 427H539V528.929H634.25V427ZM647.75 427H743V528.929H647.75V427ZM634.25 541.25H539V643.179H634.25V541.25ZM647.75 541.25H743V643.179H647.75V541.25ZM99.1741 191.591H37.1741V297.091H99.1741V191.591ZM37.1741 312.028H99.1741V417.466H37.1741V312.028ZM99.1741 432.091H37.1741V538.091H99.1741V432.091ZM37.1741 553.778H99.1741V659.091H37.1741V553.778Z" fill="black"/>
</svg>
