<svg width="985" height="751" viewBox="0 0 985 751" fill="none" xmlns="http://www.w3.org/2000/svg">
<path fill-rule="evenodd" clip-rule="evenodd" d="M0 0H985V751H0V0ZM541.473 86.5H740.778V202.802H541.473V86.5ZM945 94.25H885.25V499.25H945V94.25ZM98 95.25H38.25V500.25H98V95.25ZM740.279 233H541.81V348.5H740.279V233ZM541.972 382.132H741.277V498.434H541.972V382.132ZM741.277 532.138H541.972V647.5H741.277V532.138ZM229.087 86.75H428V203H229.087V86.75ZM427.5 236H229.587V352H427.5V236ZM229.587 382.25H428.5V498.5H229.587V382.25ZM428.5 532.189H229.087V647.5H428.5V532.189Z" fill="black"/>
</svg>
