<svg width="848" height="751" viewBox="0 0 848 751" fill="none" xmlns="http://www.w3.org/2000/svg">
<path fill-rule="evenodd" clip-rule="evenodd" d="M847.174 0.579102H0.174072V750.579H847.174V0.579102ZM228 75H291.526V146.907H228V75ZM229.378 160.25H436.371V544H229.378V160.25ZM364.45 76.2355H304.557V147.525H364.45V76.2355ZM376.479 75H438V148.142H376.479V75ZM536 75H599.526V146.907H536V75ZM537.378 160.25H744.371V544H537.378V160.25ZM672.45 76.2355H612.557V147.525H672.45V76.2355ZM684.479 75H746V148.142H684.479V75ZM99.25 76.3291H73.25V165.556H99.25V76.3291ZM36.2991 76.6382H60.75V165.749H36.2991V76.6382ZM37.5 177.5H99.2053V646H37.5V177.5Z" fill="black"/>
</svg>
