<svg width="847" height="752" viewBox="0 0 847 752" fill="none" xmlns="http://www.w3.org/2000/svg">
<path fill-rule="evenodd" clip-rule="evenodd" d="M847 0.689453H0V751.689H847V0.689453ZM100.5 68.1895H38.375V392.314H100.5V68.1895ZM429.25 86H229.5V204H429.25V86ZM229.5 235.75H429.25V353.5H229.5V235.75ZM429.25 382.939H229.5V499.189H429.25V382.939ZM229.5 531.939H429.25V648.189H229.5V531.939ZM741.75 86H542V203.5H741.75V86ZM542 234.5H741.75V350.5H542V234.5ZM741.75 382.939H542V499.189H741.75V382.939ZM542 532.5H741.75V648.189H542V532.5Z" fill="black"/>
</svg>
