<svg width="855" height="751" viewBox="0 0 855 751" fill="none" xmlns="http://www.w3.org/2000/svg">
<path fill-rule="evenodd" clip-rule="evenodd" d="M854.913 0.84668H0.913208V750.847H854.913V0.84668ZM101 70.3467H40.5V158.222H101V70.3467ZM339.375 76H244V162.152H339.375V76ZM448.5 76H353.125V162.152H448.5V76ZM244 175H339.375V261.152H244V175ZM448.5 175H353.125V261.152H448.5V175ZM244 272H339.375V358.152H244V272ZM448.5 272H353.125V358.152H448.5V272ZM244 373.875H339.375V460.027H244V373.875ZM448.5 373.875H353.125V460.027H448.5V373.875ZM244 471H339.375V557.152H244V471ZM448.5 471H353.125V557.152H448.5V471ZM244 570.75H339.375V656.902H244V570.75ZM448.5 570.75H353.125V656.902H448.5V570.75ZM648.375 76H553V162.152H648.375V76ZM757.5 76H662.125V162.152H757.5V76ZM553 175H648.375V261.152H553V175ZM757.5 175H662.125V261.152H757.5V175ZM553 272H648.375V358.152H553V272ZM757.5 272H662.125V358.152H757.5V272ZM553 373.875H648.375V460.027H553V373.875ZM757.5 373.875H662.125V460.027H757.5V373.875ZM553 471H648.375V557.152H553V471ZM757.5 471H662.125V557.152H757.5V471ZM553 570.75H648.375V656.902H553V570.75ZM757.5 570.75H662.125V656.902H757.5V570.75ZM40.5 169.097H101V257.097H40.5V169.097ZM101 271.347H40.5V359.472H101V271.347ZM40.5 372.847H101V460.722H40.5V372.847ZM101 472.909H40.5V560.347H101V472.909ZM40.5 573.909H101V661.847H40.5V573.909Z" fill="currentColor"/>
</svg>
