<svg width="853" height="750" viewBox="0 0 853 750" fill="none" xmlns="http://www.w3.org/2000/svg">
<path fill-rule="evenodd" clip-rule="evenodd" d="M0 0H853V750H0V0ZM814.125 66H749.75V165.75H814.125V66ZM814.125 193H749.75V292.75H814.125V193ZM749.75 319H814.125V418.75H749.75V319ZM814.125 445H749.75V544.75H814.125V445ZM609.625 74.9326H404V172.683H609.625V74.9326ZM609.625 199.808H404V297.558H609.625V199.808ZM404 323.808H609.625V421.183H404V323.808ZM609.625 447.808H404V546.183H609.625V447.808ZM93 74.9326H298.625V172.683H93V74.9326ZM93 199.808H298.625V297.558H93V199.808ZM298.625 323.808H93V421.183H298.625V323.808ZM93 447.808H298.625V546.183H93V447.808Z" fill="black"/>
</svg>
