<svg width="786" height="751" viewBox="0 0 786 751" fill="none" xmlns="http://www.w3.org/2000/svg">
<path fill-rule="evenodd" clip-rule="evenodd" d="M785.913 0.823242H0.913208V750.823H785.913V0.823242ZM527 72.8232H614.875V219.823H527V72.8232ZM625.125 72.8232H713V219.823H625.125V72.8232ZM614.875 233.823H527V380.823H614.875V233.823ZM625.125 233.823H713V380.823H625.125V233.823ZM614.875 394.698H527V542.698H614.875V394.698ZM625.125 394.698H713V542.698H625.125V394.698ZM198 73H285.403V220.039H198V73ZM295.597 73H383V220.039H295.597V73ZM285.403 234.043H198V381.082H285.403V234.043ZM295.597 234.043H383V381.082H295.597V234.043ZM285.403 394.961H198V543H285.403V394.961ZM295.597 394.961H383V543H295.597V394.961ZM34.0382 76.3232H93.9132V206.323H34.0382V76.3232ZM93.9132 220.823H34.0382V350.448H93.9132V220.823ZM34.0382 364.948H93.9132V495.073H34.0382V364.948Z" fill="black"/>
</svg>
