<svg width="855" height="750" viewBox="0 0 855 750" fill="none" xmlns="http://www.w3.org/2000/svg">
<path fill-rule="evenodd" clip-rule="evenodd" d="M0 0H855V750H0V0ZM612 75H550.474V147.5H612V75ZM611.25 160.25H405.629V544H611.25V160.25ZM479.5 76.2354H538.75V147.524H479.5V76.2354ZM465.521 75H404V147.25H465.521V75ZM304 75H242.25V146.907H304V75ZM302.628 159.25H96.6213V544H302.628V159.25ZM171.25 76.2354H230.5V147.524H171.25V76.2354ZM157.25 75H95V146.25H157.25V75ZM752.174 76H776.5V165.227H752.174V76ZM815.125 76.3091H789.5V165.42H815.125V76.3091ZM815 177.171H753.75V645.671H815V177.171Z" fill="black"/>
</svg>
