<svg width="844" height="750" viewBox="0 0 844 750" fill="none" xmlns="http://www.w3.org/2000/svg">
<path fill-rule="evenodd" clip-rule="evenodd" d="M0 0H844V750H0V0ZM809.625 76.5H738.625V198.125H809.625V76.5ZM399 84.9326H598V199.959H399V84.9326ZM399 233.483H598V348.51H399V233.483ZM598 383.03H399V497.933H598V383.03ZM88 84.9326H287V199.959H88V84.9326ZM88 233.483H287V348.51H88V233.483ZM287 383.03H88V497.933H287V383.03ZM738.625 229.25H809.625V347H738.625V229.25ZM809.625 378.25H738.625V496H809.625V378.25Z" fill="black"/>
</svg>
