<svg width="644" height="750" viewBox="0 0 644 750" fill="none" xmlns="http://www.w3.org/2000/svg">
<path fill-rule="evenodd" clip-rule="evenodd" d="M0 0H644V750H0V0ZM569.25 66.9375H542.812V139.125H569.25V66.9375ZM582.125 67.125H608.125V139.125H582.125V67.125ZM545 150.938H608.125V660.25H545V150.938ZM323.074 75H422V146.413H323.074V75ZM212.992 158.044H422V546H212.992V158.044ZM310.926 75H212V146.413H310.926V75ZM35 66.9375H61.4375V139.125H35V66.9375ZM100.312 67.125H74.3125V139.125H100.312V67.125ZM100.312 150.938H37.1875V660.25H100.312V150.938Z" fill="currentColor"/>
</svg>
