<svg width="642" height="750" viewBox="0 0 642 750" fill="none" xmlns="http://www.w3.org/2000/svg">
<path fill-rule="evenodd" clip-rule="evenodd" d="M0 0H642V750H0V0ZM545 74.875H599V192.25H545V74.875ZM545 224.75H599V342.5H545V224.75ZM599 375.625H545V493H599V375.625ZM545 525.5H599V643.25H545V525.5ZM97 74.875H43V192.25H97V74.875ZM43 224.75H97V342.5H43V224.75ZM97 375.625H43V493H97V375.625ZM43 525.5H97V643.25H43V525.5ZM217 83H423V199.349H217V83ZM217 232.717H423V347.941H217V232.717ZM423 380.684H217V497.783H423V380.684ZM217 529.901H423V647H217V529.901Z" fill="currentColor"/>
</svg>
