<svg width="852" height="750" viewBox="0 0 852 750" fill="none" xmlns="http://www.w3.org/2000/svg">
<path fill-rule="evenodd" clip-rule="evenodd" d="M0 0H852V750H0V0ZM613 74H551.75V147.25H613V74ZM611.628 159.25H405.621V545.5H611.628V159.25ZM479.75 75.75H538.5V146.524H479.75V75.75ZM466.25 74H404V146.25H466.25V74ZM304 74H242.25V147.5H304V74ZM302.628 159.25H96.6211V543H302.628V159.25ZM171.5 75.2354H230.25V146.524H171.5V75.2354ZM157.75 74H95V147.142H157.75V74ZM814.875 76.4209H787.913V163.921H814.875V76.4209ZM814.163 176.921H749.812V496.921H814.163V176.921ZM749.812 76.4209H776.163V163.671H749.812V76.4209Z" fill="black"/>
</svg>
