<svg width="456" height="750" viewBox="0 0 456 750" fill="none" xmlns="http://www.w3.org/2000/svg">
<path fill-rule="evenodd" clip-rule="evenodd" d="M456 0H0V750H456V0ZM284.875 72H197V219H284.875V72ZM383 72H295.125V219H383V72ZM197 233H284.875V380H197V233ZM383 233H295.125V380H383V233ZM197 393.875H284.875V541.875H197V393.875ZM383 393.875H295.125V541.875H383V393.875ZM33.125 77.5H93V207.5H33.125V77.5ZM93 222H33.125V351.625H93V222ZM33.125 366.125H93V496.25H33.125V366.125Z" fill="currentColor"/>
</svg>
