<svg width="368" height="750" viewBox="0 0 368 750" fill="none" xmlns="http://www.w3.org/2000/svg">
<path fill-rule="evenodd" clip-rule="evenodd" d="M368 0H0V750H368V0ZM80.75 82.9456H176V184.125H80.75V82.9456ZM189.5 82.9456H284.75V184.125H189.5V82.9456ZM176 198.946H80.75V300.625H176V198.946ZM189.5 198.946H284.75V300.625H189.5V198.946ZM176 313.946H80.75V415.875H176V313.946ZM189.5 313.946H284.75V415.875H189.5V313.946ZM176 427.946H80.75V529.875H176V427.946ZM189.5 427.946H284.75V529.875H189.5V427.946ZM176 542.196H80.75V644.125H176V542.196ZM189.5 542.196H284.75V644.125H189.5V542.196Z" fill="black"/>
</svg>
