<svg width="983" height="750" viewBox="0 0 983 750" fill="none" xmlns="http://www.w3.org/2000/svg">
<path fill-rule="evenodd" clip-rule="evenodd" d="M0 0H983V750H0V0ZM877.625 76.5H948.625V198.125H877.625V76.5ZM737 84.9326H538V199.959H737V84.9326ZM737 233.483H538V348.51H737V233.483ZM538 383.03H737V497.933H538V383.03ZM426 84.9326H227V199.959H426V84.9326ZM426 233.483H227V348.51H426V233.483ZM227 383.03H426V497.933H227V383.03ZM948.625 229.25H877.625V347H948.625V229.25ZM877.625 378.25H948.625V496H877.625V378.25ZM104.625 76.5H33.625V198.125H104.625V76.5ZM33.625 229.25H104.625V347H33.625V229.25ZM104.625 378.25H33.625V496H104.625V378.25Z" fill="black"/>
</svg>
