<svg width="848" height="750" viewBox="0 0 848 750" fill="none" xmlns="http://www.w3.org/2000/svg">
<path fill-rule="evenodd" clip-rule="evenodd" d="M848 0H0V750H848V0ZM31.75 56.25H98.5V643.75H31.75V56.25ZM332 475C370.108 475 401 394.411 401 295C401 195.589 370.108 115 332 115C293.892 115 263 195.589 263 295C263 394.411 293.892 475 332 475ZM644 476C682.108 476 713 395.411 713 296C713 196.589 682.108 116 644 116C605.892 116 575 196.589 575 296C575 395.411 605.892 476 644 476Z" fill="black"/>
</svg>
