<svg width="853" height="750" viewBox="0 0 853 750" fill="none" xmlns="http://www.w3.org/2000/svg">
<path fill-rule="evenodd" clip-rule="evenodd" d="M0 0H853V750H0V0ZM812 69.5625H750V175H812V69.5625ZM613 82H517.75V183.179H613V82ZM504.25 82H409V183.179H504.25V82ZM517.75 198H613V299.679H517.75V198ZM504.25 198H409V299.679H504.25V198ZM517.75 313H613V414.929H517.75V313ZM504.25 313H409V414.929H504.25V313ZM517.75 427H613V528.929H517.75V427ZM504.25 427H409V528.929H504.25V427ZM517.75 541.25H613V643.179H517.75V541.25ZM504.25 541.25H409V643.179H504.25V541.25ZM301 82H205.75V183.179H301V82ZM192.25 82H97V183.179H192.25V82ZM205.75 198H301V299.679H205.75V198ZM192.25 198H97V299.679H192.25V198ZM205.75 313H301V414.929H205.75V313ZM192.25 313H97V414.929H192.25V313ZM205.75 427H301V528.929H205.75V427ZM192.25 427H97V528.929H192.25V427ZM205.75 541.25H301V643.179H205.75V541.25ZM192.25 541.25H97V643.179H192.25V541.25ZM750 191H812V296.5H750V191ZM812 311.438H750V416.875H812V311.438ZM750 431.5H812V537.5H750V431.5ZM812 553.188H750V658.5H812V553.188Z" fill="black"/>
</svg>
