<svg width="984" height="750" viewBox="0 0 984 750" fill="none" xmlns="http://www.w3.org/2000/svg">
<path fill-rule="evenodd" clip-rule="evenodd" d="M0 0H984V750H0V0ZM941 74.875H886.5V192.25H941V74.875ZM941 224.75H886.5V342.5H941V224.75ZM886.5 375.625H941V493H886.5V375.625ZM941 525.5H886.5V643.25H941V525.5ZM41.5 74.875H96V192.25H41.5V74.875ZM96 224.75H41.5V342.5H96V224.75ZM41.5 375.625H96V493H41.5V375.625ZM96 525.5H41.5V643.25H96V525.5ZM733 81.9092H537V198.258H733V81.9092ZM733 231.626H537V346.85H733V231.626ZM537 379.593H733V496.692H537V379.593ZM733 528.81H537V645.909H733V528.81ZM228 81.9092H425V198.258H228V81.9092ZM228 231.626H425V346.85H228V231.626ZM425 379.593H228V496.692H425V379.593ZM228 528.81H425V645.909H228V528.81Z" fill="black"/>
</svg>
