<svg width="500" height="750" viewBox="0 0 500 750" fill="none" xmlns="http://www.w3.org/2000/svg">
<path fill-rule="evenodd" clip-rule="evenodd" d="M500 0H0V750H500V0ZM99 69.5H38.25V157.375H99V69.5ZM213 79H308.375V165.152H213V79ZM322.125 79H417.5V165.152H322.125V79ZM308.375 178H213V264.152H308.375V178ZM322.125 178H417.5V264.152H322.125V178ZM308.375 275H213V361.152H308.375V275ZM322.125 275H417.5V361.152H322.125V275ZM308.375 376.875H213V463.027H308.375V376.875ZM322.125 376.875H417.5V463.027H322.125V376.875ZM308.375 474H213V560.152H308.375V474ZM322.125 474H417.5V560.152H322.125V474ZM308.375 573.75H213V659.902H308.375V573.75ZM322.125 573.75H417.5V659.902H322.125V573.75ZM38.25 168.25H99V256.25H38.25V168.25ZM99 270.5H38.25V358.625H99V270.5ZM38.25 372H99V459.875H38.25V372ZM99 472.062H38.25V559.5H99V472.062ZM38.25 573.062H99V661H38.25V573.062Z" fill="black"/>
</svg>
