<svg width="713" height="750" viewBox="0 0 713 750" fill="none" xmlns="http://www.w3.org/2000/svg">
<path fill-rule="evenodd" clip-rule="evenodd" d="M713 0H0V750H713V0ZM191.375 75H96V161.152H191.375V75ZM300.5 75H205.125V161.152H300.5V75ZM96 174H191.375V260.152H96V174ZM300.5 174H205.125V260.152H300.5V174ZM96 271H191.375V357.152H96V271ZM300.5 271H205.125V357.152H300.5V271ZM96 372.875H191.375V459.027H96V372.875ZM300.5 372.875H205.125V459.027H300.5V372.875ZM96 470H191.375V556.152H96V470ZM300.5 470H205.125V556.152H300.5V470ZM96 569.75H191.375V655.902H96V569.75ZM300.5 569.75H205.125V655.902H300.5V569.75ZM501.375 75H406V161.152H501.375V75ZM610.5 75H515.125V161.152H610.5V75ZM406 174H501.375V260.152H406V174ZM610.5 174H515.125V260.152H610.5V174ZM406 271H501.375V357.152H406V271ZM610.5 271H515.125V357.152H610.5V271ZM406 372.875H501.375V459.027H406V372.875ZM610.5 372.875H515.125V459.027H610.5V372.875ZM406 470H501.375V556.152H406V470ZM610.5 470H515.125V556.152H610.5V470ZM406 569.75H501.375V655.902H406V569.75ZM610.5 569.75H515.125V655.902H610.5V569.75Z" fill="currentColor"/>
</svg>
