<svg width="985" height="750" viewBox="0 0 985 750" fill="none" xmlns="http://www.w3.org/2000/svg">
<path fill-rule="evenodd" clip-rule="evenodd" d="M0 0H985V750H0V0ZM946.125 66H881.75V165.75H946.125V66ZM946.125 193H881.75V292.75H946.125V193ZM881.75 319H946.125V418.75H881.75V319ZM946.125 445H881.75V544.75H946.125V445ZM36.75 66H101.125V165.75H36.75V66ZM101.125 193H36.75V292.75H101.125V193ZM36.75 319H101.125V418.75H36.75V319ZM101.125 445H36.75V544.75H101.125V445ZM741.625 74.9326H536V172.683H741.625V74.9326ZM741.625 199.808H536V297.558H741.625V199.808ZM536 323.808H741.625V421.183H536V323.808ZM741.625 447.808H536V546.183H741.625V447.808ZM225 74.9326H430.625V172.683H225V74.9326ZM225 199.808H430.625V297.558H225V199.808ZM430.625 323.808H225V421.183H430.625V323.808ZM225 447.808H430.625V546.183H225V447.808Z" fill="currentColor"/>
</svg>
