<svg width="504" height="750" viewBox="0 0 504 750" fill="none" xmlns="http://www.w3.org/2000/svg">
<path fill-rule="evenodd" clip-rule="evenodd" d="M0 0H504V750H0V0ZM465.261 68H405V162.141H465.261V68ZM465.261 190.875H405V284.875H465.261V190.875ZM405 315.625H465.261V409.25H405V315.625ZM465.261 440.375H405V533.875H465.261V440.375ZM405 563.125H465.261V656.625H405V563.125ZM286 74H81V168.335H286V74ZM286 198.447H81V292.282H286V198.447ZM81 322.394H286V416.229H81V322.394ZM286 442.593H81V538.052H286V442.593ZM81 565.541H286V661H81V565.541Z" fill="black"/>
</svg>
