<svg width="987" height="750" viewBox="0 0 987 750" fill="none" xmlns="http://www.w3.org/2000/svg">
<path fill-rule="evenodd" clip-rule="evenodd" d="M0 0H987V750H0V0ZM886.913 69.5H947.413V157.375H886.913V69.5ZM338.325 75H433V161.167H338.325V75ZM230 75H324.675V161.167H230V75ZM433 174.017H338.325V260.183H433V174.017ZM230 174.017H324.675V260.183H230V174.017ZM433 271.033H338.325V357.2H433V271.033ZM230 271.033H324.675V357.2H230V271.033ZM433 372.925H338.325V459.092H433V372.925ZM230 372.925H324.675V459.092H230V372.925ZM433 470.066H338.325V556.233H433V470.066ZM230 470.066H324.675V556.233H230V470.066ZM433 569.833H338.325V656H433V569.833ZM230 569.833H324.675V656H230V569.833ZM648.538 75.1533H743.913V161.306H648.538V75.1533ZM539.413 75.1533H634.788V161.306H539.413V75.1533ZM743.913 174.153H648.538V260.306H743.913V174.153ZM539.413 174.153H634.788V260.306H539.413V174.153ZM743.913 271.153H648.538V357.306H743.913V271.153ZM539.413 271.153H634.788V357.306H539.413V271.153ZM743.913 373.028H648.538V459.181H743.913V373.028ZM539.413 373.028H634.788V459.181H539.413V373.028ZM743.913 470.153H648.538V556.306H743.913V470.153ZM539.413 470.153H634.788V556.306H539.413V470.153ZM743.913 569.903H648.538V656.056H743.913V569.903ZM539.413 569.903H634.788V656.056H539.413V569.903ZM947.413 168.25H886.913V256.25H947.413V168.25ZM886.913 270.5H947.413V358.625H886.913V270.5ZM947.413 372H886.913V459.875H947.413V372ZM886.913 472.062H947.413V559.5H886.913V472.062ZM947.413 573.062H886.913V661H947.413V573.062ZM37.9132 69.5H98.4132V157.375H37.9132V69.5ZM98.4132 168.25H37.9132V256.25H98.4132V168.25ZM37.9132 270.5H98.4132V358.625H37.9132V270.5ZM98.4132 372H37.9132V459.875H98.4132V372ZM37.9132 472.062H98.4132V559.5H37.9132V472.062ZM98.4132 573.062H37.9132V661H98.4132V573.062Z" fill="black"/>
</svg>
