<svg width="771" height="750" viewBox="0 0 771 750" fill="none" xmlns="http://www.w3.org/2000/svg">
<path fill-rule="evenodd" clip-rule="evenodd" d="M0 0H771V750H0V0ZM739.875 64.25H673V149.625H739.875V64.25ZM553 72H464.942V156.26H553V72ZM452.433 72H364V156.26H452.433V72ZM464.942 168.5H553V251.939H464.942V168.5ZM452.874 168.5H364V251.939H452.874V168.5ZM464.942 263.083H553V347.626H464.942V263.083ZM452.874 263.083H364V347.626H452.874V263.083ZM464.942 359.401H553V442.5H464.942V359.401ZM452.874 359.401H364V442.5H452.874V359.401ZM464.942 455.25H553V539H464.942V455.25ZM452.874 455.25H364V539H452.874V455.25ZM278 73H189.942V157.26H278V73ZM177.433 73H89V157.26H177.433V73ZM189.942 169.5H278V252.939H189.942V169.5ZM177.874 169.5H89.0001V252.939H177.874V169.5ZM189.942 264.083H278V348.626H189.942V264.083ZM177.874 264.083H89.0001V348.626H177.874V264.083ZM189.942 360.401H278V443.5H189.942V360.401ZM177.874 360.401H89.0001V443.5H177.874V360.401ZM189.942 456.25H278V540H189.942V456.25ZM177.874 456.25H89.0001V540H177.874V456.25ZM673 162.125H739.875V247.5H673V162.125ZM739.875 260.25H673V345.625H739.875V260.25ZM673 357.875H739.875V443.25H673V357.875ZM739.875 456.125H673V541.5H739.875V456.125Z" fill="currentColor"/>
</svg>
