<svg width="853" height="750" viewBox="0 0 853 750" fill="none" xmlns="http://www.w3.org/2000/svg">
<path fill-rule="evenodd" clip-rule="evenodd" d="M0 0H853V750H0V0ZM751.25 76.875H778.182V163.625H751.25V76.875ZM816.367 76.9375H790.7V163.625H816.367V76.9375ZM817.062 176.875H751.503V496.5H817.062V176.875ZM610 85H551.351V169.769H610V85ZM408 184.17H610V645H408V184.17ZM479.675 85H538.87V169.769H479.675V85ZM467.618 85H408.788V169.769H467.618V85ZM301 85H242.351V169.769H301V85ZM99 184.17H301V645H99V184.17ZM170.675 85H229.87V169.769H170.675V85ZM158.618 85H99.7877V169.769H158.618V85Z" fill="black"/>
</svg>
