<svg width="851" height="750" viewBox="0 0 851 750" fill="none" xmlns="http://www.w3.org/2000/svg">
<path fill-rule="evenodd" clip-rule="evenodd" d="M0 0H851V750H0V0ZM751.764 71.125H812.025V165.491H751.764V71.125ZM751.764 194.294H812.025V288.519H751.764V194.294ZM812.025 319.343H751.764V413.192H812.025V319.343ZM751.764 444.391H812.025V538.115H751.764V444.391ZM812.025 567.435H751.764V661.159H812.025V567.435ZM410 78H615V172.335H410V78ZM410 202.447H615V296.282H410V202.447ZM615 326.394H410V420.229H615V326.394ZM410 446.593H615V542.052H410V446.593ZM615 569.541H410V665H615V569.541ZM301 75H96V169.335H301V75ZM301 199.447H96V293.282H301V199.447ZM96 323.394H301V417.229H96V323.394ZM301 443.593H96V539.052H301V443.593ZM96 566.541H301V662H96V566.541Z" fill="currentColor"/>
</svg>
