<svg width="852" height="750" viewBox="0 0 852 750" fill="none" xmlns="http://www.w3.org/2000/svg">
<path fill-rule="evenodd" clip-rule="evenodd" d="M0 0H852V750H0V0ZM813.75 57.75H747V645.25H813.75V57.75ZM509 475C470.892 475 440 394.411 440 295C440 195.589 470.892 115 509 115C547.108 115 578 195.589 578 295C578 394.411 547.108 475 509 475ZM197 476C158.892 476 128 395.411 128 296C128 196.589 158.892 116 197 116C235.108 116 266 196.589 266 296C266 395.411 235.108 476 197 476Z" fill="currentColor"/>
</svg>
