<svg width="849" height="751" viewBox="0 0 849 751" fill="none" xmlns="http://www.w3.org/2000/svg">
<path fill-rule="evenodd" clip-rule="evenodd" d="M848.913 0.311035H0.913208V750.311H848.913V0.311035ZM38.7882 68H102.538V392.186H38.7882V68ZM334 476C372.108 476 403 395.187 403 295.5C403 195.813 372.108 115 334 115C295.892 115 265 195.813 265 295.5C265 395.187 295.892 476 334 476ZM645 476C683.108 476 714 395.187 714 295.5C714 195.813 683.108 115 645 115C606.892 115 576 195.813 576 295.5C576 395.187 606.892 476 645 476Z" fill="currentColor"/>
</svg>
