<svg width="844" height="751" viewBox="0 0 844 751" fill="none" xmlns="http://www.w3.org/2000/svg">
<path fill-rule="evenodd" clip-rule="evenodd" d="M844 0.334961H0V750.335H844V0.334961ZM101.75 77.21H74.8181V163.96H101.75V77.21ZM36.6329 77.2725H62.3004V163.96H36.6329V77.2725ZM35.9375 177.21H101.497V496.835H35.9375V177.21ZM230 86H288.649V170.769H230V86ZM432 185.17H230V646H432V185.17ZM360.325 86H301.13V170.769H360.325V86ZM372.382 86H431.212V170.769H372.382V86ZM539 86H597.649V170.769H539V86ZM741 185.17H539V646H741V185.17ZM669.325 86H610.13V170.769H669.325V86ZM681.382 86H740.212V170.769H681.382V86Z" fill="currentColor"/>
</svg>
