<svg width="852" height="751" viewBox="0 0 852 751" fill="none" xmlns="http://www.w3.org/2000/svg">
<path fill-rule="evenodd" clip-rule="evenodd" d="M0 0H852V751H0V0ZM408.473 86.5H607.778V202.802H408.473V86.5ZM752.25 94.25H812V499.25H752.25V94.25ZM607.279 233H408.81V348.5H607.279V233ZM408.972 382.132H608.277V498.434H408.972V382.132ZM608.277 532.138H408.972V647.5H608.277V532.138ZM96.087 86.75H295V203H96.087V86.75ZM294.5 236H96.587V352H294.5V236ZM96.587 382.25H295.5V498.5H96.587V382.25ZM295.5 532.189H96.087V647.5H295.5V532.189Z" fill="black"/>
</svg>
