<svg width="504" height="750" viewBox="0 0 504 750" fill="none" xmlns="http://www.w3.org/2000/svg">
<path fill-rule="evenodd" clip-rule="evenodd" d="M504 0H0V750H504V0ZM37.9749 70.375H98.2362V164.516H37.9749V70.375ZM37.9749 193.25H98.2362V287.25H37.9749V193.25ZM98.2362 318H37.9749V411.625H98.2362V318ZM37.9749 442.75H98.2362V536.25H37.9749V442.75ZM98.2362 565.5H37.9749V659H98.2362V565.5ZM216 75H421V169.335H216V75ZM216 199.447H421V293.282H216V199.447ZM421 323.394H216V417.229H421V323.394ZM216 443.593H421V539.052H216V443.593ZM421 566.541H216V662H421V566.541Z" fill="currentColor"/>
</svg>
