<svg width="764" height="751" viewBox="0 0 764 751" fill="none" xmlns="http://www.w3.org/2000/svg">
<path fill-rule="evenodd" clip-rule="evenodd" d="M764 0.823242H0V750.823H764V0.823242ZM28.125 65.0732H95V150.448H28.125V65.0732ZM210 74H298.058V158.26H210V74ZM310.567 74H399V158.26H310.567V74ZM298.058 170.5H210V253.939H298.058V170.5ZM310.126 170.5H399V253.939H310.126V170.5ZM298.058 265.083H210V349.626H298.058V265.083ZM310.126 265.083H399V349.626H310.126V265.083ZM298.058 361.401H210V444.5H298.058V361.401ZM310.126 361.401H399V444.5H310.126V361.401ZM298.058 457.25H210V541H298.058V457.25ZM310.126 457.25H399V541H310.126V457.25ZM484 74H572.058V158.26H484V74ZM584.567 74H673V158.26H584.567V74ZM572.058 170.5H484V253.939H572.058V170.5ZM584.126 170.5H673V253.939H584.126V170.5ZM572.058 265.083H484V349.626H572.058V265.083ZM584.126 265.083H673V349.626H584.126V265.083ZM572.058 361.401H484V444.5H572.058V361.401ZM584.126 361.401H673V444.5H584.126V361.401ZM572.058 457.25H484V541H572.058V457.25ZM584.126 457.25H673V541H584.126V457.25ZM95 162.948H28.125V248.323H95V162.948ZM28.125 261.073H95V346.448H28.125V261.073ZM95 358.698H28.125V444.073H95V358.698ZM28.125 456.948H95V542.323H28.125V456.948Z" fill="currentColor"/>
</svg>
