<svg width="504" height="750" viewBox="0 0 504 750" fill="none" xmlns="http://www.w3.org/2000/svg">
<path fill-rule="evenodd" clip-rule="evenodd" d="M504 0H0V750H504V0ZM37 70.0625H99V175.5H37V70.0625ZM313.25 82H218V183.18H313.25V82ZM422 82H326.75V183.18H422V82ZM218 198H313.25V299.68H218V198ZM422 198H326.75V299.68H422V198ZM218 313H313.25V414.93H218V313ZM422 313H326.75V414.93H422V313ZM218 427H313.25V528.93H218V427ZM422 427H326.75V528.93H422V427ZM218 541.25H313.25V643.18H218V541.25ZM422 541.25H326.75V643.18H422V541.25ZM99 191.5H37V297H99V191.5ZM37 311.938H99V417.375H37V311.938ZM99 432H37V538H99V432ZM37 553.688H99V659H37V553.688Z" fill="currentColor"/>
</svg>
