<svg width="910" height="750" viewBox="0 0 910 750" fill="none" xmlns="http://www.w3.org/2000/svg">
<path fill-rule="evenodd" clip-rule="evenodd" d="M0 0H910V750H0V0ZM294.125 72H382V219H294.125V72ZM196 72H283.875V219H196V72ZM382 233H294.125V380H382V233ZM196 233H283.875V380H196V233ZM382 393.875H294.125V541.875H382V393.875ZM196 393.875H283.875V541.875H196V393.875ZM625.511 72.1768H712.913V219.216H625.511V72.1768ZM527.913 72.1768H615.316V219.216H527.913V72.1768ZM712.913 233.22H625.511V380.259H712.913V233.22ZM527.913 233.22H615.316V380.259H527.913V233.22ZM712.913 394.137H625.511V542.177H712.913V394.137ZM527.913 394.137H615.316V542.177H527.913V394.137ZM817 75.5H876.875V205.5H817V75.5ZM876.875 220H817V349.625H876.875V220ZM817 364.125H876.875V494.25H817V364.125ZM91.9131 75.5H32.0381V205.5H91.9131V75.5ZM32.0381 220H91.9131V349.625H32.0381V220ZM91.9131 364.125H32.0381V494.25H91.9131V364.125Z" fill="currentColor"/>
</svg>
