<svg width="851" height="750" viewBox="0 0 851 750" fill="none" xmlns="http://www.w3.org/2000/svg">
<path fill-rule="evenodd" clip-rule="evenodd" d="M0 0H851V750H0V0ZM202.603 73H302V144.413H202.603V73ZM91.9965 156.044H302V544H91.9965V156.044ZM190.397 73H91V144.413H190.397V73ZM520.603 75H620V146.261H520.603V75ZM409.996 157.868H620V545H409.996V157.868ZM508.397 75H409V146.261H508.397V75ZM748.75 75.9375H772.75V164.921H748.75V75.9375ZM811 76.1689H784.75V164.921H811V76.1689ZM810.5 176.921H750.25V645.921H810.5V176.921Z" fill="currentColor"/>
</svg>
