<svg width="660" height="750" viewBox="0 0 660 750" fill="none" xmlns="http://www.w3.org/2000/svg">
<path fill-rule="evenodd" clip-rule="evenodd" d="M660 0H0V750H660V0ZM158.875 72H71V219H158.875V72ZM257 72H169.125V219H257V72ZM71 233H158.875V380H71V233ZM257 233H169.125V380H257V233ZM71 393.875H158.875V541.875H71V393.875ZM257 393.875H169.125V541.875H257V393.875ZM488.875 72H401V219H488.875V72ZM587 72H499.125V219H587V72ZM401 233H488.875V380H401V233ZM587 233H499.125V380H587V233ZM401 393.875H488.875V541.875H401V393.875ZM587 393.875H499.125V541.875H587V393.875Z" fill="black"/>
</svg>
