<svg width="785" height="750" viewBox="0 0 785 750" fill="none" xmlns="http://www.w3.org/2000/svg">
<path fill-rule="evenodd" clip-rule="evenodd" d="M0 0H785V750H0V0ZM257 72H169.125V219H257V72ZM158.875 72H71V219H158.875V72ZM169.125 233H257V380H169.125V233ZM158.875 233H71V380H158.875V233ZM169.125 393.875H257V541.875H169.125V393.875ZM158.875 393.875H71V541.875H158.875V393.875ZM587.913 72.1768H500.511V219.216H587.913V72.1768ZM490.316 72.1768H402.913V219.216H490.316V72.1768ZM500.511 233.22H587.913V380.259H500.511V233.22ZM490.316 233.22H402.913V380.259H490.316V233.22ZM500.511 394.137H587.913V542.177H500.511V394.137ZM490.316 394.137H402.913V542.177H490.316V394.137ZM751.875 75.5H692V205.5H751.875V75.5ZM692 220H751.875V349.625H692V220ZM751.875 364.125H692V494.25H751.875V364.125Z" fill="black"/>
</svg>
