<svg width="762" height="750" viewBox="0 0 762 750" fill="none" xmlns="http://www.w3.org/2000/svg">
<path fill-rule="evenodd" clip-rule="evenodd" d="M0 0H762V750H0V0ZM668.625 72.75H729.438V178.875H668.625V72.75ZM456.602 73H544V180.819H456.602V73ZM358 73H445.398V180.819H358V73ZM544 193.846H456.602V299H544V193.846ZM358 193.846H445.398V299H358V193.846ZM544 314.072H456.602V421H544V314.072ZM358 314.072H445.398V421H358V314.072ZM544 434.5H456.602V541H544V434.5ZM358 434.5H445.398V541H358V434.5ZM176.602 73H264V180.819H176.602V73ZM78 73H165.398V180.819H78V73ZM264 193.846H176.602V299H264V193.846ZM78 193.846H165.398V299H78V193.846ZM264 314.072H176.602V421H264V314.072ZM78 314.072H165.398V421H78V314.072ZM264 434.5H176.602V541H264V434.5ZM78 434.5H165.398V541H78V434.5ZM729.438 193.25H668.625V299.375H729.438V193.25ZM668.625 314.062H729.438V420.188H668.625V314.062ZM729.438 434H668.625V540.125H729.438V434Z" fill="currentColor"/>
</svg>
