<svg width="854" height="750" viewBox="0 0 854 750" fill="none" xmlns="http://www.w3.org/2000/svg">
<path fill-rule="evenodd" clip-rule="evenodd" d="M0 0H854V750H0V0ZM811 74.875H756.5V192.25H811V74.875ZM811 224.75H756.5V342.5H811V224.75ZM756.5 375.625H811V493H756.5V375.625ZM811 525.5H756.5V643.25H811V525.5ZM603 81.9092H407V198.258H603V81.9092ZM603 231.626H407V346.85H603V231.626ZM407 379.593H603V496.692H407V379.593ZM603 528.81H407V645.909H603V528.81ZM98 81.9092H295V198.258H98V81.9092ZM98 231.626H295V346.85H98V231.626ZM295 379.593H98V496.692H295V379.593ZM98 528.81H295V645.909H98V528.81Z" fill="currentColor"/>
</svg>
