<svg width="843" height="751" viewBox="0 0 843 751" fill="none" xmlns="http://www.w3.org/2000/svg">
<path fill-rule="evenodd" clip-rule="evenodd" d="M842.174 0.823242H0.174072V750.823H842.174V0.823242ZM318.75 74H219V145.375H318.75V74ZM429.75 157H219V544.75H429.75V157ZM331 74H430.75V145.375H331V74ZM636.75 74H537V145.375H636.75V74ZM747.75 157H537V544.75H747.75V157ZM649 74H748.75V145.375H649V74ZM37.9241 77.6357H63.1116V166.25H37.9241V77.6357ZM37.2366 179.25H102.25V499H37.2366V179.25ZM102.25 78.25H75.75V166H102.25V78.25Z" fill="black"/>
</svg>
