<svg width="848" height="751" viewBox="0 0 848 751" fill="none" xmlns="http://www.w3.org/2000/svg">
<path fill-rule="evenodd" clip-rule="evenodd" d="M848 0.933105H0V750.933H848V0.933105ZM38.5 95.4331H99.25V501.183H38.5V95.4331ZM332 477C370.108 477 401 396.187 401 296.5C401 196.813 370.108 116 332 116C293.892 116 263 196.813 263 296.5C263 396.187 293.892 477 332 477ZM645 477C683.108 477 714 396.187 714 296.5C714 196.813 683.108 116 645 116C606.892 116 576 196.813 576 296.5C576 396.187 606.892 477 645 477Z" fill="black"/>
</svg>
