<svg width="853" height="750" viewBox="0 0 853 750" fill="none" xmlns="http://www.w3.org/2000/svg">
<path fill-rule="evenodd" clip-rule="evenodd" d="M0 0H853V750H0V0ZM814.5 94.5H750.5V500.25H814.5V94.5ZM509 475C470.892 475 440 394.187 440 294.5C440 194.813 470.892 114 509 114C547.108 114 578 194.813 578 294.5C578 394.187 547.108 475 509 475ZM197 475C158.892 475 128 394.187 128 294.5C128 194.813 158.892 114 197 114C235.108 114 266 194.813 266 294.5C266 394.187 235.108 475 197 475Z" fill="currentColor"/>
</svg>
