<svg width="852" height="751" viewBox="0 0 852 751" fill="none" xmlns="http://www.w3.org/2000/svg">
<path fill-rule="evenodd" clip-rule="evenodd" d="M0 0H852V750.5H0V0ZM751.5 67H812.5V388.5H751.5V67ZM408.25 86.3105H607V202H408.25V86.3105ZM607 234H408.25V349H607V234ZM408.25 382.172H607V498H408.25V382.172ZM607.25 532H408V648.25H607.25V532ZM95.75 86.8105H295.5V202H95.75V86.8105ZM295.5 237H95.75V351.311H295.5V237ZM95.25 382.25H295V497.5H95.25V382.25ZM295.25 531.811H96.25V647.5H295.25V531.811Z" fill="currentColor"/>
</svg>
